<svg width="65" height="64" viewBox="0 0 65 64" fill="none" xmlns="http://www.w3.org/2000/svg">
<rect x="0.5" width="64" height="64" rx="32" fill="#13340D"/>
<path d="M28.0081 37.775L43.5456 22.2375C43.9123 21.8708 44.3401 21.6875 44.829 21.6875C45.3179 21.6875 45.7456 21.8708 46.1123 22.2375C46.479 22.6042 46.6623 23.0396 46.6623 23.5438C46.6623 24.0479 46.479 24.4833 46.1123 24.85L29.2915 41.7167C28.9248 42.0833 28.497 42.2667 28.0081 42.2667C27.5193 42.2667 27.0915 42.0833 26.7248 41.7167L18.8415 33.8333C18.4748 33.4667 18.2991 33.0312 18.3144 32.5271C18.3297 32.0229 18.5206 31.5875 18.8873 31.2208C19.254 30.8542 19.6894 30.6708 20.1936 30.6708C20.6977 30.6708 21.1331 30.8542 21.4998 31.2208L28.0081 37.775Z" fill="#99EB87"/>
</svg>
