<svg width="20" height="20" viewBox="0 0 20 20" fill="none" xmlns="http://www.w3.org/2000/svg">
<path d="M15.714 10.5693C15.7044 8.92993 16.4472 7.6944 17.9471 6.78338C17.1082 5.5815 15.839 4.92047 14.166 4.79307C12.5819 4.66807 10.8488 5.71611 10.2142 5.71611C9.5436 5.71611 8.01001 4.83634 6.80332 4.83634C4.31304 4.8748 1.6665 6.82184 1.6665 10.7832C1.6665 11.9538 1.88044 13.1629 2.30831 14.4081C2.8804 16.0474 4.94282 20.0641 7.09418 19.9992C8.21913 19.9728 9.01478 19.2012 10.4787 19.2012C11.8993 19.2012 12.6348 19.9992 13.8896 19.9992C16.0602 19.968 17.9255 16.3167 18.4687 14.6725C15.5578 13.2999 15.714 10.6534 15.714 10.5693Z" fill="black"/>
<path d="M13.1878 3.23785C14.4065 1.7908 14.2959 0.473539 14.2599 0C13.183 0.0624976 11.9378 0.733145 11.2287 1.55763C10.4475 2.44221 9.98841 3.53592 10.087 4.76905C11.2504 4.85798 12.3128 4.25945 13.1878 3.23785Z" fill="black"/>
</svg>
