<svg width="18" height="18" viewBox="0 0 18 18" fill="none" xmlns="http://www.w3.org/2000/svg">
<path d="M14.1428 9.5126C14.1341 8.03718 14.8026 6.9252 16.1526 6.10528C15.3975 5.02359 14.2553 4.42866 12.7496 4.31401C11.3239 4.20151 9.7641 5.14474 9.19297 5.14474C8.58939 5.14474 7.20915 4.35295 6.12314 4.35295C3.88188 4.38756 1.5 6.1399 1.5 9.70514C1.5 10.7587 1.69254 11.8469 2.07762 12.9675C2.59251 14.4429 4.44868 18.0579 6.38491 17.9995C7.39737 17.9757 8.11345 17.2813 9.43094 17.2813C10.7095 17.2813 11.3715 17.9995 12.5008 17.9995C14.4543 17.9714 16.1331 14.6852 16.622 13.2055C14.0022 11.9702 14.1428 9.58832 14.1428 9.5126Z" fill="black"/>
<path d="M11.8691 2.91407C12.9659 1.61172 12.8664 0.426185 12.8339 0C11.8647 0.0562478 10.7441 0.65983 10.1059 1.40187C9.40282 2.19799 8.98961 3.18233 9.07831 4.29214C10.1254 4.37219 11.0816 3.8335 11.8691 2.91407Z" fill="black"/>
</svg>
