<svg width="17" height="18" viewBox="0 0 17 18" fill="none" xmlns="http://www.w3.org/2000/svg">
<path d="M7.81328 11.8703V4.1875C7.81328 3.99271 7.87917 3.82943 8.01094 3.69766C8.14271 3.56589 8.30599 3.5 8.50078 3.5C8.69557 3.5 8.85885 3.56589 8.99063 3.69766C9.1224 3.82943 9.18828 3.99271 9.18828 4.1875V11.8703L12.557 8.50156C12.6945 8.36406 12.8549 8.29818 13.0383 8.30391C13.2216 8.30964 13.382 8.38125 13.5195 8.51875C13.6456 8.65625 13.7115 8.81667 13.7172 9C13.7229 9.18333 13.657 9.34375 13.5195 9.48125L8.98203 14.0188C8.91328 14.0875 8.8388 14.1362 8.75859 14.1648C8.67839 14.1935 8.59245 14.2078 8.50078 14.2078C8.40911 14.2078 8.32318 14.1935 8.24297 14.1648C8.16276 14.1362 8.08828 14.0875 8.01953 14.0188L3.48203 9.48125C3.35599 9.35521 3.29297 9.19766 3.29297 9.00859C3.29297 8.81953 3.35599 8.65625 3.48203 8.51875C3.61953 8.38125 3.78281 8.3125 3.97188 8.3125C4.16094 8.3125 4.32422 8.38125 4.46172 8.51875L7.81328 11.8703Z" fill="#DFF0FF"/>
</svg>
