<svg width="16" height="16" viewBox="0 0 16 16" fill="none" xmlns="http://www.w3.org/2000/svg">
<path d="M10.7827 8.66668H3.33268C3.14379 8.66668 2.98546 8.60279 2.85768 8.47501C2.7299 8.34723 2.66602 8.1889 2.66602 8.00001C2.66602 7.81112 2.7299 7.65279 2.85768 7.52501C2.98546 7.39723 3.14379 7.33335 3.33268 7.33335H10.7827L7.51602 4.06668C7.38268 3.93335 7.31879 3.77779 7.32435 3.60001C7.3299 3.42223 7.39935 3.26668 7.53268 3.13335C7.66602 3.01112 7.82157 2.94723 7.99935 2.94168C8.17713 2.93612 8.33268 3.00001 8.46602 3.13335L12.866 7.53335C12.9327 7.60001 12.9799 7.67223 13.0077 7.75001C13.0355 7.82779 13.0493 7.91112 13.0493 8.00001C13.0493 8.0889 13.0355 8.17223 13.0077 8.25001C12.9799 8.32779 12.9327 8.40001 12.866 8.46668L8.46602 12.8667C8.34379 12.9889 8.19102 13.05 8.00768 13.05C7.82435 13.05 7.66602 12.9889 7.53268 12.8667C7.39935 12.7333 7.33268 12.575 7.33268 12.3917C7.33268 12.2083 7.39935 12.05 7.53268 11.9167L10.7827 8.66668Z" fill="white"/>
</svg>
