<svg width="25" height="24" viewBox="0 0 25 24" fill="none" xmlns="http://www.w3.org/2000/svg">
<g id="arrow right thin">
<path id="Vector" d="M16.674 13.0001H5.49902C5.21569 13.0001 4.97819 12.9043 4.78652 12.7126C4.59486 12.5209 4.49902 12.2834 4.49902 12.0001C4.49902 11.7168 4.59486 11.4793 4.78652 11.2876C4.97819 11.0959 5.21569 11.0001 5.49902 11.0001H16.674L11.774 6.10011C11.574 5.90011 11.4782 5.66678 11.4865 5.40011C11.4949 5.13344 11.599 4.90011 11.799 4.70011C11.999 4.51678 12.2324 4.42094 12.499 4.41261C12.7657 4.40428 12.999 4.50011 13.199 4.70011L19.799 11.3001C19.899 11.4001 19.9699 11.5084 20.0115 11.6251C20.0532 11.7418 20.074 11.8668 20.074 12.0001C20.074 12.1334 20.0532 12.2584 20.0115 12.3751C19.9699 12.4918 19.899 12.6001 19.799 12.7001L13.199 19.3001C13.0157 19.4834 12.7865 19.5751 12.5115 19.5751C12.2365 19.5751 11.999 19.4834 11.799 19.3001C11.599 19.1001 11.499 18.8626 11.499 18.5876C11.499 18.3126 11.599 18.0751 11.799 17.8751L16.674 13.0001Z" fill="white" fill-opacity="0.4"/>
</g>
</svg>
