<svg width="25" height="24" viewBox="0 0 25 24" fill="none" xmlns="http://www.w3.org/2000/svg">
<path d="M19.1514 15.6094L15.5889 12L19.1514 8.39062L17.7451 6.98438L14.1826 10.5938L10.5732 6.98438L9.16699 8.39062L12.7764 12L9.16699 15.6094L10.5732 17.0156L14.1826 13.4062L17.7451 17.0156L19.1514 15.6094ZM22.1514 3C22.6826 3 23.1514 3.20312 23.5576 3.60938C23.9639 4.01562 24.167 4.48438 24.167 5.01562V18.9844C24.167 19.5156 23.9639 19.9844 23.5576 20.3906C23.1514 20.7969 22.6826 21 22.1514 21H7.15137C6.52637 21 5.99512 20.7031 5.55762 20.1094L0.166992 12L5.55762 3.89062C5.99512 3.29688 6.52637 3 7.15137 3H22.1514Z" fill="currentColor"/>
</svg>
