<svg width="36" height="36" viewBox="0 0 36 36" fill="none" xmlns="http://www.w3.org/2000/svg">
<circle cx="18" cy="18" r="18" fill="#5B8EF4"/>
<path fill-rule="evenodd" clip-rule="evenodd" d="M19.6612 25.5202L25.5264 19.655C26.1607 19.0169 26.1607 17.9863 25.5264 17.3481L18.4386 10.2603C18.2719 10.0937 18.0458 10 17.8101 10H11.2425C10.5552 10 9.99805 10.5572 9.99805 11.2444V17.8117C9.99805 18.0477 10.0918 18.2739 10.2587 18.4406L17.3462 25.5202C17.6531 25.8274 18.0695 26 18.5037 26C18.9379 26 19.3543 25.8274 19.6612 25.5202ZM24.2914 18.5016L18.5037 24.2893L11.6869 17.4801V11.6889H17.4787L24.2914 18.5016ZM18.4663 24.3267C18.4665 24.3264 18.4667 24.3262 18.467 24.326L18.4663 24.3267Z" fill="white"/>
<path fill-rule="evenodd" clip-rule="evenodd" d="M14.7112 15.8668C15.3494 15.8668 15.8668 15.3494 15.8668 14.7112C15.8668 14.073 15.3494 13.5557 14.7112 13.5557C14.073 13.5557 13.5557 14.073 13.5557 14.7112C13.5557 15.3494 14.073 15.8668 14.7112 15.8668Z" fill="white"/>
</svg>
