<svg width="22" height="22" viewBox="0 0 22 22" fill="none" xmlns="http://www.w3.org/2000/svg">
<g id="check_circle">
<path id="Vector" d="M9.71665 12.65L7.74581 10.6792C7.57776 10.5111 7.36387 10.4271 7.10415 10.4271C6.84442 10.4271 6.63054 10.5111 6.46248 10.6792C6.29442 10.8472 6.2104 11.0611 6.2104 11.3208C6.2104 11.5806 6.29442 11.7944 6.46248 11.9625L9.07498 14.575C9.25831 14.7583 9.4722 14.85 9.71665 14.85C9.96109 14.85 10.175 14.7583 10.3583 14.575L15.5375 9.39583C15.7055 9.22777 15.7896 9.01388 15.7896 8.75416C15.7896 8.49444 15.7055 8.28055 15.5375 8.11249C15.3694 7.94444 15.1555 7.86041 14.8958 7.86041C14.6361 7.86041 14.4222 7.94444 14.2541 8.11249L9.71665 12.65ZM11 20.1667C9.73192 20.1667 8.54026 19.926 7.42498 19.4448C6.3097 18.9635 5.33956 18.3104 4.51456 17.4854C3.68956 16.6604 3.03644 15.6903 2.55519 14.575C2.07394 13.4597 1.83331 12.2681 1.83331 11C1.83331 9.73194 2.07394 8.54027 2.55519 7.42499C3.03644 6.30972 3.68956 5.33958 4.51456 4.51458C5.33956 3.68958 6.3097 3.03645 7.42498 2.5552C8.54026 2.07395 9.73192 1.83333 11 1.83333C12.268 1.83333 13.4597 2.07395 14.575 2.5552C15.6903 3.03645 16.6604 3.68958 17.4854 4.51458C18.3104 5.33958 18.9635 6.30972 19.4448 7.42499C19.926 8.54027 20.1666 9.73194 20.1666 11C20.1666 12.2681 19.926 13.4597 19.4448 14.575C18.9635 15.6903 18.3104 16.6604 17.4854 17.4854C16.6604 18.3104 15.6903 18.9635 14.575 19.4448C13.4597 19.926 12.268 20.1667 11 20.1667Z" fill="#33D60F"/>
</g>
</svg>
