<svg width="7" height="12" viewBox="0 0 7 12" fill="none" xmlns="http://www.w3.org/2000/svg">
<path id="chevron_right" d="M4.6252 5.9998L0.725195 2.0998C0.541862 1.91647 0.450195 1.68314 0.450195 1.3998C0.450195 1.11647 0.541862 0.883138 0.725195 0.699805C0.908529 0.516471 1.14186 0.424805 1.4252 0.424805C1.70853 0.424805 1.94186 0.516471 2.1252 0.699805L6.7252 5.2998C6.8252 5.3998 6.89603 5.50814 6.9377 5.6248C6.97936 5.74147 7.0002 5.86647 7.0002 5.9998C7.0002 6.13314 6.97936 6.25814 6.9377 6.3748C6.89603 6.49147 6.8252 6.5998 6.7252 6.6998L2.1252 11.2998C1.94186 11.4831 1.70853 11.5748 1.4252 11.5748C1.14186 11.5748 0.908529 11.4831 0.725195 11.2998C0.541862 11.1165 0.450195 10.8831 0.450195 10.5998C0.450195 10.3165 0.541862 10.0831 0.725195 9.89981L4.6252 5.9998Z" fill="#B2B2B2"/>
</svg>
