<svg width="24" height="24" viewBox="0 0 24 24" fill="none" xmlns="http://www.w3.org/2000/svg">
<path d="M12 15.975C11.8667 15.975 11.7417 15.9542 11.625 15.9125C11.5083 15.8708 11.4 15.8 11.3 15.7L6.69999 11.1C6.51665 10.9167 6.42499 10.6833 6.42499 10.4C6.42499 10.1167 6.51665 9.88332 6.69999 9.69999C6.88332 9.51665 7.11665 9.42499 7.39999 9.42499C7.68332 9.42499 7.91665 9.51665 8.09999 9.69999L12 13.6L15.9 9.69999C16.0833 9.51665 16.3167 9.42499 16.6 9.42499C16.8833 9.42499 17.1167 9.51665 17.3 9.69999C17.4833 9.88332 17.575 10.1167 17.575 10.4C17.575 10.6833 17.4833 10.9167 17.3 11.1L12.7 15.7C12.6 15.8 12.4917 15.8708 12.375 15.9125C12.2583 15.9542 12.1333 15.975 12 15.975Z" fill="white"/>
</svg>
