<svg width="24" height="24" viewBox="0 0 24 24" fill="none" xmlns="http://www.w3.org/2000/svg">
<g id="chevron_down">
<path id="Vector" d="M11.9998 8.02501C11.8665 8.02501 11.7415 8.04585 11.6248 8.08751C11.5081 8.12918 11.3998 8.20001 11.2998 8.30001L6.6998 12.9C6.51647 13.0833 6.4248 13.3167 6.4248 13.6C6.4248 13.8833 6.51647 14.1167 6.6998 14.3C6.88314 14.4833 7.11647 14.575 7.3998 14.575C7.68314 14.575 7.91647 14.4833 8.0998 14.3L11.9998 10.4L15.8998 14.3C16.0831 14.4833 16.3165 14.575 16.5998 14.575C16.8831 14.575 17.1165 14.4833 17.2998 14.3C17.4831 14.1167 17.5748 13.8833 17.5748 13.6C17.5748 13.3167 17.4831 13.0833 17.2998 12.9L12.6998 8.30001C12.5998 8.20001 12.4915 8.12918 12.3748 8.08751C12.2581 8.04585 12.1331 8.02501 11.9998 8.02501Z" fill="white"/>
</g>
</svg>
