<svg width="24" height="24" viewBox="0 0 24 24" fill="none" xmlns="http://www.w3.org/2000/svg">
<path fill-rule="evenodd" clip-rule="evenodd" d="M12 9.45502L16.9285 4.52703C17.383 4.07249 18.0455 3.89498 18.6664 4.06135C19.2873 4.22772 19.7723 4.71271 19.9387 5.33362C20.1051 5.95453 19.9276 6.61703 19.473 7.07157L14.544 11.999L19.473 16.9285C20.1366 17.5921 20.1735 18.6451 19.5836 19.352L19.473 19.473C18.7704 20.1757 17.6311 20.1757 16.9285 19.473L12 14.545L7.07157 19.473C6.40795 20.1367 5.35492 20.1735 4.64803 19.5836L4.52703 19.473C3.82438 18.7704 3.82438 17.6311 4.52703 16.9285L9.45502 12L4.52703 7.07157C4.11037 6.65491 3.92649 6.0635 4.02688 5.48957L4.06135 5.33362C4.22772 4.71271 4.71271 4.22772 5.33362 4.06135C5.95453 3.89498 6.61703 4.07249 7.07157 4.52703L12 9.45502Z" fill="#515A62"/>
</svg>
