<svg width="20" height="20" viewBox="0 0 20 20" fill="none" xmlns="http://www.w3.org/2000/svg">
<g id="close">
<path id="Vector" d="M12.9248 10.0002L17.311 14.3866C18.1188 15.1945 18.1188 16.5031 17.311 17.311C16.5032 18.1188 15.1946 18.1188 14.3869 17.311L10.0007 12.9245L5.61345 17.311C4.80668 18.1188 3.49709 18.1188 2.68932 17.311C1.88155 16.5031 1.88155 15.1945 2.68932 14.3866L7.07552 10.0002L2.68932 5.61368C1.88155 4.80586 1.88155 3.49719 2.68932 2.68936C3.49709 1.88154 4.80668 1.88154 5.61345 2.68936L10.0007 7.07584L14.3869 2.68936C15.1946 1.88154 16.5032 1.88154 17.311 2.68936C18.1188 3.49719 18.1188 4.80586 17.311 5.61368L12.9248 10.0002Z" fill="white"/>
</g>
</svg>
