<svg width="24" height="24" viewBox="0 0 24 24" fill="none" xmlns="http://www.w3.org/2000/svg">
<path fill-rule="evenodd" clip-rule="evenodd" d="M20.4852 3.51472C15.7989 -1.17157 8.20093 -1.17157 3.51464 3.51472C-1.17165 8.20101 -1.17165 15.799 3.51464 20.4853C8.20093 25.1716 15.7989 25.1716 20.4852 20.4853C25.1715 15.799 25.1715 8.20101 20.4852 3.51472ZM4.8935 19.1064C0.968728 15.1817 0.968728 8.81835 4.8935 4.89358C8.81827 0.968809 15.1816 0.968809 19.1063 4.89358C23.0311 8.81835 23.0311 15.1817 19.1063 19.1064C15.1816 23.0312 8.81827 23.0312 4.8935 19.1064ZM7.70734 14.8482C7.30848 15.2471 7.30848 15.8937 7.70734 16.2926C8.10619 16.6914 8.75286 16.6914 9.15171 16.2926L11.9999 13.4444L14.8481 16.2926C15.247 16.6914 15.8937 16.6914 16.2925 16.2926C16.6914 15.8937 16.6914 15.2471 16.2925 14.8482L13.4443 12L16.2925 9.15179C16.6914 8.75294 16.6914 8.10627 16.2925 7.70742C15.8936 7.30856 15.247 7.30856 14.8481 7.70742L11.9999 10.5556L9.15171 7.70742C8.75286 7.30856 8.10619 7.30856 7.70734 7.70742C7.30848 8.10627 7.30848 8.75294 7.70734 9.15179L10.5555 12L7.70734 14.8482Z" fill="white"/>
</svg>
