<svg width="14" height="14" viewBox="0 0 14 14" fill="none" xmlns="http://www.w3.org/2000/svg">
<path fill-rule="evenodd" clip-rule="evenodd" d="M5.15009 0.349609H12.1518C12.925 0.349609 13.5518 0.976411 13.5518 1.74961V8.74961C13.5518 9.52281 12.925 10.1496 12.1518 10.1496H5.15009C4.37689 10.1496 3.75009 9.52281 3.75009 8.74961V1.74961C3.75009 0.976411 4.37689 0.349609 5.15009 0.349609ZM12.1518 1.39961H5.15009C4.95679 1.39961 4.80009 1.55631 4.80009 1.74961V8.74961C4.80009 8.94291 4.95679 9.09961 5.15009 9.09961H12.1518C12.3451 9.09961 12.5018 8.94291 12.5018 8.74961V1.74961C12.5018 1.55631 12.3451 1.39961 12.1518 1.39961ZM3.09321 4.89961V3.84961H1.7501L1.62267 3.85533C0.909189 3.91971 0.350098 4.51937 0.350098 5.24961V12.1822L0.355819 12.3096C0.420194 13.0231 1.01985 13.5822 1.7501 13.5822H9.18617L9.31359 13.5765C10.0271 13.5121 10.5862 12.9124 10.5862 12.1822V10.7613H9.53617V12.1822L9.52906 12.2527C9.49642 12.4122 9.3553 12.5322 9.18617 12.5322H1.7501L1.67956 12.5251C1.52007 12.4924 1.4001 12.3513 1.4001 12.1822V5.24961L1.40721 5.17907C1.43984 5.01958 1.58096 4.89961 1.7501 4.89961H3.09321Z" fill="#515A62"/>
</svg>
