<svg width="16" height="16" viewBox="0 0 16 16" fill="none" xmlns="http://www.w3.org/2000/svg">
<g id="copy">
<path id="Vector" d="M8.93301 1.3335H9.79967C10.533 1.3335 11.133 1.3335 11.5997 1.40016C12.0663 1.46683 12.533 1.5335 12.933 1.7335C13.4663 2.00016 13.9997 2.5335 14.333 3.1335C14.533 3.5335 14.5997 3.9335 14.6663 4.46683V6.26683V7.1335C14.6663 7.86683 14.6663 8.46683 14.5997 8.9335C14.533 9.40016 14.4663 9.86683 14.2663 10.2668C13.933 10.8668 13.4663 11.4002 12.7997 11.7335C12.7997 11.7335 12.733 11.7335 12.733 11.8002C12.8663 11.4668 12.933 11.0668 12.933 10.6668C12.933 10.2002 12.933 9.60016 12.933 8.80016V8.66683C12.933 7.9335 12.933 7.3335 12.933 6.80016C12.8663 6.3335 12.7997 5.86683 12.6663 5.46683C12.2663 4.46683 11.4663 3.7335 10.533 3.3335C10.133 3.20016 9.73301 3.06683 9.19967 3.06683C8.73301 3.06683 8.13301 3.06683 7.33301 3.06683C6.59967 3.06683 5.99967 3.06683 5.46634 3.06683C5.06634 3.06683 4.66634 3.1335 4.33301 3.26683C4.33301 3.26683 4.33301 3.20016 4.39967 3.20016C4.66634 2.5335 5.19967 2.00016 5.79967 1.66683C6.19967 1.46683 6.59967 1.40016 7.13301 1.3335H8.93301ZM7.06634 4.00016H6.26634C5.53301 4.00016 4.93301 4.00016 4.46634 4.06683C3.99967 4.06683 3.53301 4.1335 3.13301 4.3335C2.53301 4.66683 1.99967 5.20016 1.66634 5.80016C1.46634 6.20016 1.39967 6.60016 1.33301 7.1335V8.9335V9.80016C1.33301 10.5335 1.33301 11.1335 1.39967 11.6002C1.46634 12.0668 1.53301 12.5335 1.73301 12.9335C1.99967 13.4668 2.53301 14.0002 3.13301 14.3335C3.53301 14.5335 3.93301 14.6002 4.46634 14.6668H6.26634H7.13301C7.86634 14.6668 8.46634 14.6668 8.93301 14.6002C9.39967 14.5335 9.86634 14.4668 10.2663 14.2668C10.8663 13.9335 11.3997 13.4668 11.733 12.8002C11.933 12.4002 11.9997 12.0002 12.0663 11.4668C12.133 11.0002 12.133 10.4002 12.133 9.66683V8.80016C12.133 8.06683 12.133 7.46683 12.0663 7.00016C11.9997 6.5335 11.933 6.06683 11.733 5.66683C11.333 5.20016 10.7997 4.66683 10.1997 4.3335C9.79967 4.1335 9.39967 4.06683 8.86634 4.00016C8.39967 4.00016 7.79967 4.00016 7.06634 4.00016Z" fill="white" fill-opacity="0.7"/>
</g>
</svg>
