<svg width="16" height="16" viewBox="0 0 16 16" fill="none" xmlns="http://www.w3.org/2000/svg">
<g id="icon_discord">
<path id="shape" fill-rule="evenodd" clip-rule="evenodd" d="M13.2175 3.42903C14.9115 5.82623 15.7482 8.53019 15.4354 11.6431C15.4341 11.6562 15.427 11.6683 15.4157 11.6763C14.1329 12.5829 12.8899 13.1331 11.6644 13.498C11.6449 13.5037 11.6237 13.4968 11.6117 13.4808C11.3286 13.1017 11.0714 12.702 10.846 12.2823C10.8331 12.2575 10.8449 12.2278 10.8715 12.218C11.2801 12.0699 11.6686 11.8923 12.0422 11.6821C12.0717 11.6655 12.0736 11.6248 12.0464 11.6054C11.9671 11.5487 11.8885 11.4891 11.8133 11.4296C11.7992 11.4186 11.7803 11.4164 11.7644 11.4238C9.3383 12.5021 6.68068 12.5021 4.22594 11.4238C4.21 11.417 4.19106 11.4193 4.17738 11.4301C4.10238 11.4897 4.02363 11.5487 3.94506 11.6054C3.91788 11.6248 3.92013 11.6655 3.94975 11.6821C4.32344 11.8883 4.71194 12.0699 5.11994 12.2187C5.14637 12.2285 5.15894 12.2575 5.14581 12.2823C4.92531 12.7025 4.66806 13.1023 4.37969 13.4814C4.36713 13.4967 4.3465 13.5038 4.327 13.498C3.10731 13.1331 1.86438 12.5829 0.581507 11.6763C0.570819 11.6683 0.563132 11.6557 0.562007 11.6425C0.300632 8.94994 0.833319 6.22359 2.77788 3.42849C2.78257 3.42109 2.78969 3.41532 2.79794 3.41189C3.75475 2.98926 4.77981 2.67833 5.85119 2.50076C5.87069 2.49788 5.89019 2.50654 5.90031 2.52314C6.03269 2.74871 6.184 3.03798 6.28637 3.27438C7.41568 3.10836 8.56262 3.10836 9.71555 3.27438C9.81793 3.04304 9.96399 2.74871 10.0958 2.52314C10.1054 2.50625 10.1252 2.49722 10.1449 2.50076C11.2169 2.67887 12.2419 2.9898 13.198 3.41189C13.2064 3.41532 13.2134 3.42109 13.2175 3.42903ZM6.86061 8.54866C6.87242 7.75266 6.26942 7.09399 5.51249 7.09399C4.76174 7.09399 4.16455 7.74689 4.16455 8.54866C4.16455 9.35025 4.77355 10.0031 5.51249 10.0031C6.26342 10.0031 6.86061 9.35025 6.86061 8.54866ZM11.8446 8.54866C11.8564 7.75266 11.2534 7.09399 10.4967 7.09399C9.74575 7.09399 9.14856 7.74689 9.14856 8.54866C9.14856 9.35025 9.75756 10.0031 10.4967 10.0031C11.2534 10.0031 11.8446 9.35025 11.8446 8.54866Z" fill="#25272A"/>
</g>
</svg>
