<svg width="16" height="16" viewBox="0 0 16 16" fill="none" xmlns="http://www.w3.org/2000/svg">
<g id="edit thin">
<path id="Vector" d="M2.57064 15.1257C2.20397 15.1257 1.89008 14.9951 1.62897 14.734C1.36786 14.4729 1.2373 14.159 1.2373 13.7923C1.2373 13.4257 1.36786 13.1118 1.62897 12.8507C1.89008 12.5895 2.20397 12.459 2.57064 12.459H13.2373C13.604 12.459 13.9179 12.5895 14.179 12.8507C14.4401 13.1118 14.5706 13.4257 14.5706 13.7923C14.5706 14.159 14.4401 14.4729 14.179 14.734C13.9179 14.9951 13.604 15.1257 13.2373 15.1257H2.57064ZM3.90397 9.79232H4.8373L10.0373 4.60898L9.0873 3.65898L3.90397 8.85898V9.79232ZM2.57064 10.459V8.57565C2.57064 8.48676 2.5873 8.40065 2.62064 8.31732C2.65397 8.23398 2.70397 8.15898 2.77064 8.09232L10.0373 0.842318C10.1595 0.720095 10.3012 0.625651 10.4623 0.558984C10.6234 0.492318 10.7929 0.458984 10.9706 0.458984C11.1484 0.458984 11.3206 0.492318 11.4873 0.558984C11.654 0.625651 11.804 0.725651 11.9373 0.858984L12.854 1.79232C12.9873 1.91454 13.0845 2.05898 13.1456 2.22565C13.2067 2.39232 13.2373 2.56454 13.2373 2.74232C13.2373 2.90898 13.2067 3.07287 13.1456 3.23398C13.0845 3.3951 12.9873 3.54232 12.854 3.67565L5.60397 10.9257C5.5373 10.9923 5.4623 11.0423 5.37897 11.0757C5.29564 11.109 5.20953 11.1257 5.12064 11.1257H3.2373C3.04842 11.1257 2.89008 11.0618 2.7623 10.934C2.63453 10.8062 2.57064 10.6479 2.57064 10.459Z" fill="white"/>
</g>
</svg>
