<svg width="20" height="20" viewBox="0 0 20 20" fill="none" xmlns="http://www.w3.org/2000/svg">
<path fill-rule="evenodd" clip-rule="evenodd" d="M0.5 3.95523C0.5 3.00132 1.27333 2.22803 2.22727 2.22803H17.7727C18.7267 2.22803 19.5 3.00132 19.5 3.95523V4.7176V16.0456C19.5 16.9995 18.7267 17.7728 17.7727 17.7728H2.22727C1.27333 17.7728 0.5 16.9995 0.5 16.0456V4.7176V3.95523ZM2.22727 6.62479V15.182C2.22727 15.659 2.61394 16.0456 3.09091 16.0456H16.9091C17.3861 16.0456 17.7727 15.659 17.7727 15.182V6.62479L11.2406 10.1876C10.4673 10.6094 9.53268 10.6094 8.75936 10.1876L2.22727 6.62479Z" fill="#515A62"/>
</svg>
