<svg width="22" height="22" viewBox="0 0 22 22" fill="none" xmlns="http://www.w3.org/2000/svg">
<g clip-path="url(#clip0_697_6798)">
<path fill-rule="evenodd" clip-rule="evenodd" d="M12.2967 12.341L22 4.28059V17.5397C21.9855 18.5383 21.1645 19.3363 20.1658 19.3223H1.83166C1.35236 19.3289 0.890098 19.1447 0.546586 18.8104C0.203074 18.4761 0.00645769 18.019 0 17.5397V4.28059L9.70389 12.341C10.428 13.0363 11.572 13.0363 12.2967 12.341Z" fill="#5B8EF4"/>
<path opacity="0.4" fill-rule="evenodd" clip-rule="evenodd" d="M11.6707 10.8916C11.2874 11.2596 10.6819 11.2596 10.2985 10.8916L0.820312 3.04988C1.12248 2.85266 1.47588 2.74841 1.83671 2.75006H20.1684C20.5167 2.75305 20.8574 2.85248 21.1527 3.03731H21.1603L11.6707 10.8916Z" fill="#5B8EF4"/>
</g>
<defs>
<clipPath id="clip0_697_6798">
<rect width="22" height="22" fill="white"/>
</clipPath>
</defs>
</svg>
