<svg width="18" height="18" viewBox="0 0 18 18" fill="none" xmlns="http://www.w3.org/2000/svg">
<path fill-rule="evenodd" clip-rule="evenodd" d="M0.5 3.59084C0.5 2.73732 1.19192 2.04541 2.04545 2.04541H15.9545C16.8081 2.04541 17.5 2.73732 17.5 3.59084V4.27299V14.4089C17.5 15.2624 16.8081 15.9543 15.9545 15.9543H2.04545C1.19192 15.9543 0.5 15.2624 0.5 14.4089V4.27299V3.59084ZM2.04545 5.97947V13.6361C2.04545 14.0629 2.39142 14.4089 2.81818 14.4089H15.1818C15.6086 14.4089 15.9545 14.0629 15.9545 13.6361V5.97947L10.11 9.16733C9.41813 9.54473 8.58187 9.54473 7.88995 9.16733L2.04545 5.97947Z" fill="#477BFF"/>
</svg>
