<svg width="32" height="32" viewBox="0 0 32 32" fill="none" xmlns="http://www.w3.org/2000/svg">
<g id="error">
<path id="Vector" d="M16.0001 22.6666C16.3779 22.6666 16.6945 22.5388 16.9501 22.2833C17.2056 22.0277 17.3334 21.7111 17.3334 21.3333C17.3334 20.9555 17.2056 20.6388 16.9501 20.3833C16.6945 20.1277 16.3779 20 16.0001 20C15.6223 20 15.3056 20.1277 15.0501 20.3833C14.7945 20.6388 14.6667 20.9555 14.6667 21.3333C14.6667 21.7111 14.7945 22.0277 15.0501 22.2833C15.3056 22.5388 15.6223 22.6666 16.0001 22.6666ZM16.0001 17.3333C16.3779 17.3333 16.6945 17.2055 16.9501 16.95C17.2056 16.6944 17.3334 16.3777 17.3334 16V10.6666C17.3334 10.2888 17.2056 9.97218 16.9501 9.71663C16.6945 9.46107 16.3779 9.33329 16.0001 9.33329C15.6223 9.33329 15.3056 9.46107 15.0501 9.71663C14.7945 9.97218 14.6667 10.2888 14.6667 10.6666V16C14.6667 16.3777 14.7945 16.6944 15.0501 16.95C15.3056 17.2055 15.6223 17.3333 16.0001 17.3333ZM16.0001 29.3333C14.1556 29.3333 12.4223 28.9833 10.8001 28.2833C9.17786 27.5833 7.76675 26.6333 6.56675 25.4333C5.36675 24.2333 4.41675 22.8222 3.71675 21.2C3.01675 19.5777 2.66675 17.8444 2.66675 16C2.66675 14.1555 3.01675 12.4222 3.71675 10.8C4.41675 9.17774 5.36675 7.76663 6.56675 6.56663C7.76675 5.36663 9.17786 4.41663 10.8001 3.71663C12.4223 3.01663 14.1556 2.66663 16.0001 2.66663C17.8445 2.66663 19.5779 3.01663 21.2001 3.71663C22.8223 4.41663 24.2334 5.36663 25.4334 6.56663C26.6334 7.76663 27.5834 9.17774 28.2834 10.8C28.9834 12.4222 29.3334 14.1555 29.3334 16C29.3334 17.8444 28.9834 19.5777 28.2834 21.2C27.5834 22.8222 26.6334 24.2333 25.4334 25.4333C24.2334 26.6333 22.8223 27.5833 21.2001 28.2833C19.5779 28.9833 17.8445 29.3333 16.0001 29.3333Z" fill="white"/>
</g>
</svg>
