<svg width="70" height="12" viewBox="0 0 70 12" fill="none" xmlns="http://www.w3.org/2000/svg">
<g clip-path="url(#clip0_1989_14633)">
<path d="M14.1561 5.95575L10.7658 0L3.9134 0.04425L0.452148 6.04425L3.84252 12L10.6945 11.9557L14.1561 5.95575ZM8.28027 10.5799L4.64127 10.6065L2.8394 7.44675L3.65615 6.02662L5.04965 8.48513L6.32765 6.26625L7.53515 6.9675L6.2564 9.18637L9.08802 9.16875L8.28027 10.5799ZM10.9428 5.97337L9.54965 3.51487L8.27165 5.73375L7.06415 5.0325L8.34252 2.81362L5.51127 2.83125L6.32765 1.41112L9.96665 1.38488L11.7685 4.54425L10.9428 5.97337Z" fill="white" fill-opacity="0.7"/>
<path d="M22.9796 3.29273V2.06873H17.0771V9.93248H22.9796V8.70773H18.3019V6.73711H22.2431V5.50336H18.3019V3.29311L22.9796 3.29273ZM39.0889 4.56248V4.01198H40.3226V9.92348H39.0889V9.35573C38.5889 9.72003 37.9859 9.91572 37.3673 9.91448C36.9803 9.91468 36.597 9.83861 36.2395 9.69061C35.8819 9.54262 35.557 9.3256 35.2833 9.05197C35.0096 8.77834 34.7926 8.45346 34.6445 8.0959C34.4965 7.73834 34.4204 7.35511 34.4205 6.96811V6.95873C34.4203 6.57171 34.4964 6.18843 34.6444 5.83083C34.7924 5.47322 35.0095 5.1483 35.2832 4.87463C35.5568 4.60096 35.8818 4.38391 36.2394 4.23589C36.597 4.08787 36.9802 4.01179 37.3673 4.01198C37.7978 4.01198 38.2009 4.10611 38.5661 4.27073C38.7506 4.35136 38.9254 4.44961 39.0889 4.56248ZM35.6453 6.96773C35.6457 7.42432 35.8272 7.86208 36.1501 8.18493C36.4729 8.50779 36.9107 8.68934 37.3673 8.68973C37.8238 8.68924 38.2615 8.50764 38.5842 8.1848C38.907 7.86196 39.0885 7.42425 39.0889 6.96773C39.0885 6.51122 38.907 6.07351 38.5842 5.75067C38.2615 5.42783 37.8238 5.24623 37.3673 5.24573C36.9107 5.24613 36.4729 5.42768 36.1501 5.75054C35.8272 6.07339 35.6457 6.51115 35.6453 6.96773ZM44.1304 4.02098C44.5174 4.02079 44.9007 4.09687 45.2583 4.24489C45.6159 4.39291 45.9408 4.60996 46.2145 4.88363C46.4882 5.1573 46.7052 5.48222 46.8532 5.83983C47.0013 6.19743 47.0773 6.58071 47.0771 6.96773C47.0771 6.97636 47.0771 6.97636 47.0861 6.99398V9.94111H45.8524V6.98536C45.8519 6.52881 45.6703 6.0911 45.3475 5.76827C45.0247 5.44544 44.5869 5.26386 44.1304 5.26336C43.6738 5.26376 43.236 5.44531 42.9132 5.76816C42.5903 6.09101 42.4088 6.52878 42.4084 6.98536V9.94111H41.1746V4.03861H42.4084V4.58011C42.9085 4.21561 43.5116 4.01978 44.1304 4.02098ZM31.8375 4.58011V4.03898H30.6038V9.94148H31.8375V6.98573C31.8379 6.52915 32.0195 6.09139 32.3423 5.76854C32.6652 5.44568 33.1029 5.26413 33.5595 5.26373V4.02998C32.9406 4.01887 32.3353 4.21223 31.8375 4.58011ZM67.731 4.03898V4.58011C68.2288 4.21223 68.8341 4.01887 69.453 4.02998V5.26373C68.9964 5.26413 68.5587 5.44568 68.2358 5.76854C67.913 6.09139 67.7314 6.52915 67.731 6.98573V9.94111H66.4973V4.03898H67.731ZM29.7428 2.06836H23.8493V3.29273H26.1836V9.93173H27.4088V3.29311H29.7428V2.06836ZM49.8019 5.26336H49.722C49.4205 5.26336 49.1719 5.51198 49.1629 5.80486C49.1629 6.09736 49.4115 6.35498 49.7134 6.35498H52.0564C53.0415 6.35498 53.8406 7.16273 53.8406 8.13923C53.8406 9.12436 53.0329 9.92311 52.0564 9.92311H49.2874V10.66L47.9381 9.31073L49.2874 7.96148V8.69836H52.0564C52.3493 8.69836 52.6069 8.44973 52.6069 8.14786C52.6069 7.85536 52.3583 7.59773 52.0564 7.59773H49.722C48.7369 7.59773 47.9381 6.78998 47.9381 5.81348C47.9381 4.82836 48.7459 4.02961 49.722 4.02961H52.0564C52.2075 4.02961 52.3493 3.96736 52.4471 3.86986L51.9323 3.35498H53.8406V5.26336L53.3168 4.73986C52.9883 5.05936 52.5446 5.26336 52.0564 5.26336H49.8019ZM58.8731 3.31936V2.09461C58.4861 2.09441 58.1028 2.1705 57.7452 2.31852C57.3876 2.46653 57.0627 2.68358 56.789 2.95725C56.5154 3.23092 56.2983 3.55585 56.1503 3.91345C56.0023 4.27106 55.9262 4.65433 55.9264 5.04136H54.7013V6.26611H55.9264V9.95836H57.1511V6.26648H58.8818V5.04173H57.1511C57.1515 4.58515 57.3331 4.14739 57.6559 3.82454C57.9788 3.50168 58.4166 3.32013 58.8731 3.31973M59.7428 7.00336C59.7426 6.61633 59.8187 6.23306 59.9667 5.87545C60.1147 5.51785 60.3317 5.19292 60.6054 4.91925C60.8791 4.64558 61.204 4.42853 61.5616 4.28052C61.9192 4.1325 62.3025 4.05641 62.6895 4.05661C64.314 4.05661 65.6363 5.37923 65.6363 7.00336C65.6363 7.21636 65.6187 7.42073 65.574 7.61611H61.074C61.1763 7.88629 61.3446 8.12656 61.5635 8.31501C61.7825 8.50346 62.0452 8.63409 62.3276 8.69497C62.61 8.75586 62.9031 8.74507 63.1803 8.66359C63.4574 8.5821 63.7098 8.43252 63.9143 8.22848L64.7753 9.08949C64.5015 9.36339 64.1763 9.58044 63.8184 9.72814C63.4604 9.87584 63.0768 9.95128 62.6895 9.95011C62.3025 9.95031 61.9192 9.87422 61.5616 9.7262C61.204 9.57819 60.8791 9.36114 60.6054 9.08747C60.3317 8.8138 60.1147 8.48887 59.9667 8.13127C59.8187 7.77366 59.7426 7.39039 59.7428 7.00336ZM62.6895 5.28173C61.953 5.28173 61.3227 5.75198 61.074 6.39998H64.305C64.1815 6.07134 63.9607 5.7882 63.672 5.58838C63.3834 5.38856 63.0406 5.28159 62.6895 5.28173Z" fill="white" fill-opacity="0.7"/>
</g>
<defs>
<clipPath id="clip0_1989_14633">
<rect width="69.375" height="12" fill="white" transform="translate(0.3125)"/>
</clipPath>
</defs>
</svg>
