<svg width="236" height="32" viewBox="0 0 236 32" fill="none" xmlns="http://www.w3.org/2000/svg">
<path d="M204.5 8C204.5 3.85786 207.858 0.5 212 0.5H228C232.142 0.5 235.5 3.85786 235.5 8V24C235.5 28.1421 232.142 31.5 228 31.5H212C207.858 31.5 204.5 28.1421 204.5 24V8Z" fill="white"/>
<path d="M204.5 8C204.5 3.85786 207.858 0.5 212 0.5H228C232.142 0.5 235.5 3.85786 235.5 8V24C235.5 28.1421 232.142 31.5 228 31.5H212C207.858 31.5 204.5 28.1421 204.5 24V8Z" stroke="#E3E3E3"/>
<path d="M208 16.9145C208 12.8432 211.241 9.54175 215.238 9.54175V20.6403H217.252V16.9145H222.791C222.791 20.9408 219.422 24.2125 215.237 24.2854C215.237 24.2893 215.176 24.2864 215.168 24.2864C211.176 24.3382 208 20.8025 208 16.9145Z" fill="#F4BF7F"/>
<path d="M232 15.0848C232 19.1571 228.759 22.4576 224.762 22.4576V11.359H222.749V15.0848H217.209C217.209 11.0586 220.578 7.78687 224.763 7.71391C224.763 7.71007 224.824 7.71295 224.832 7.71295C228.824 7.66111 232 11.1968 232 15.0848Z" fill="#F4BF7F"/>
<path d="M170.5 8C170.5 3.85786 173.858 0.5 178 0.5H194C198.142 0.5 201.5 3.85786 201.5 8V24C201.5 28.1421 198.142 31.5 194 31.5H178C173.858 31.5 170.5 28.1421 170.5 24V8Z" fill="white"/>
<path d="M170.5 8C170.5 3.85786 173.858 0.5 178 0.5H194C198.142 0.5 201.5 3.85786 201.5 8V24C201.5 28.1421 198.142 31.5 194 31.5H178C173.858 31.5 170.5 28.1421 170.5 24V8Z" stroke="#E3E3E3"/>
<path d="M197.613 19.0387L192.423 10.0369C191.286 8.1601 188.512 8.1409 187.413 10.1166L181.964 19.4784C180.947 21.1949 182.204 23.3501 184.241 23.3501H195.159C197.214 23.3501 198.751 21.1344 197.613 19.0387Z" fill="#3156AA"/>
<path d="M190.128 19.7376L189.808 19.1789C189.509 18.6595 188.85 17.5421 188.85 17.5421L184.459 9.91688C183.322 8.22057 180.627 8.08041 179.489 10.2164L174.379 19.0589C173.321 20.9155 174.579 23.3299 176.874 23.3501H195.118C192.304 23.3702 191.406 21.913 190.128 19.7376Z" fill="#1972E2"/>
<path d="M190.129 19.7376L189.809 19.1789C189.51 18.6596 188.851 17.5421 188.851 17.5421L186.017 12.5521L181.944 19.4986C180.927 21.2151 182.184 23.3712 184.219 23.3712H195.118C192.284 23.3501 191.406 21.913 190.129 19.7376Z" fill="url(#paint0_linear_1868_37470)"/>
<path d="M136.5 8C136.5 3.85786 139.858 0.5 144 0.5H160C164.142 0.5 167.5 3.85786 167.5 8V24C167.5 28.1421 164.142 31.5 160 31.5H144C139.858 31.5 136.5 28.1421 136.5 24V8Z" fill="white"/>
<path d="M136.5 8C136.5 3.85786 139.858 0.5 144 0.5H160C164.142 0.5 167.5 3.85786 167.5 8V24C167.5 28.1421 164.142 31.5 160 31.5H144C139.858 31.5 136.5 28.1421 136.5 24V8Z" stroke="#E3E3E3"/>
<path d="M152 9.9502H158.05V16.0001H152V9.9502Z" fill="#17E6A1"/>
<path d="M163 16C163 18.1756 162.355 20.3023 161.146 22.1113C159.937 23.9202 158.22 25.3301 156.21 26.1627C154.2 26.9952 151.988 27.2131 149.854 26.7886C147.72 26.3642 145.76 25.3165 144.222 23.7782C142.683 22.2398 141.636 20.2798 141.211 18.146C140.787 16.0122 141.005 13.8005 141.837 11.7905C142.67 9.78049 144.08 8.06253 145.889 6.85383C147.698 5.64514 149.824 5 152 5V9.95C150.803 9.95 149.634 10.3048 148.639 10.9696C147.644 11.6344 146.868 12.5793 146.411 13.6848C145.953 14.7903 145.833 16.0067 146.066 17.1803C146.3 18.3539 146.876 19.4319 147.722 20.278C148.568 21.1241 149.646 21.7003 150.82 21.9337C151.993 22.1672 153.21 22.0474 154.315 21.5895C155.421 21.1316 156.366 20.3561 157.03 19.3612C157.695 18.3663 158.05 17.1966 158.05 16H163Z" fill="#2354E6"/>
<path d="M102.5 8C102.5 3.85786 105.858 0.5 110 0.5H126C130.142 0.5 133.5 3.85786 133.5 8V24C133.5 28.1421 130.142 31.5 126 31.5H110C105.858 31.5 102.5 28.1421 102.5 24V8Z" fill="white"/>
<path d="M102.5 8C102.5 3.85786 105.858 0.5 110 0.5H126C130.142 0.5 133.5 3.85786 133.5 8V24C133.5 28.1421 130.142 31.5 126 31.5H110C105.858 31.5 102.5 28.1421 102.5 24V8Z" stroke="#E3E3E3"/>
<path d="M110.542 10.1351H113.73L111.251 16.199C111.251 16.199 109.955 16.1779 109.559 15.0455C109.448 14.7092 109.438 14.3477 109.532 14.0061L110.542 10.1351Z" fill="#D53127"/>
<path d="M122.908 10.2644L118.854 10.1939L119.766 7.18449C119.85 6.90901 119.868 6.61767 119.82 6.33379C119.771 6.0499 119.657 5.78135 119.486 5.54961C119.315 5.31786 119.092 5.12935 118.835 4.99915C118.578 4.86896 118.294 4.80069 118.006 4.7998H114.306L110.075 19.995C110.075 19.995 108.559 26.4933 114.306 27.0813C114.306 27.0813 123.39 28.9386 126.305 17.9614C126.305 17.9614 127.844 11.3221 122.908 10.2644ZM120.137 17.8007C120.137 17.8007 119.975 20.6042 117.859 21.0964C117.547 21.1749 117.217 21.1409 116.927 21.0005C116.596 20.8312 116.253 20.4801 116.262 19.7439C116.267 19.5312 116.301 19.3201 116.363 19.1164L117.144 16.1986H119.277C119.277 16.1986 120.243 16.5131 120.137 17.8007Z" fill="#F47320"/>
<path d="M126.5 14.8994C126.112 10.4389 122.908 10.2626 122.908 10.2626L118.853 10.1921L117.112 16.2321H119.238C119.629 16.2533 120.341 16.8977 120.11 18.0386" fill="url(#paint1_linear_1868_37470)"/>
<path d="M68.5 8C68.5 3.85786 71.8579 0.5 76 0.5H92C96.1421 0.5 99.5 3.85786 99.5 8V24C99.5 28.1421 96.1421 31.5 92 31.5H76C71.8579 31.5 68.5 28.1421 68.5 24V8Z" fill="white"/>
<path d="M68.5 8C68.5 3.85786 71.8579 0.5 76 0.5H92C96.1421 0.5 99.5 3.85786 99.5 8V24C99.5 28.1421 96.1421 31.5 92 31.5H76C71.8579 31.5 68.5 28.1421 68.5 24V8Z" stroke="#E3E3E3"/>
<path d="M83.0174 21.7671L85.8873 13.0474L87.2696 13.4973L86.2819 10.2334H94.8242C96.3742 10.2334 97.1807 11.6182 96.6235 13.3212L96.0824 14.9688C96.0754 14.9901 96.0677 15.0106 96.0593 15.0331L96.0362 15.0935C95.887 15.499 95.6808 15.8811 95.4238 16.2284C94.6109 17.3337 93.3732 18.0508 92.2711 18.0573H87.9823L86.7651 21.7652L83.0174 21.7671ZM88.6152 16.132H90.8907C91.4601 16.132 92.0899 15.623 92.2942 14.9978L92.8533 13.2968C93.0589 12.6708 92.7627 12.1625 92.1946 12.1625H89.9185L88.6152 16.132ZM73.1667 21.7665C73.0695 21.7631 72.9725 21.7543 72.8762 21.7401C72.7151 21.7208 72.5569 21.6817 72.4052 21.6238C72.1038 21.51 71.8365 21.3565 71.6341 21.0988C71.5118 20.942 71.4149 20.767 71.3468 20.5802C71.3116 20.4852 71.2831 20.388 71.2613 20.2891C71.1515 19.7898 71.1971 19.2885 71.3346 18.8001C71.3462 18.7577 71.4027 18.5746 71.4027 18.5746L74.1441 10.2353H77.9227L75.1402 18.7057C74.9885 19.169 75.1061 19.5809 75.4384 19.7551C75.5452 19.8135 75.6656 19.8425 75.7873 19.8392H77.6554L80.8094 10.2353H85.0828L81.9513 13.4992L83.642 13.0493L80.7708 21.7671L73.1667 21.7665Z" fill="#0361DF"/>
<path d="M34.5 8C34.5 3.85786 37.8579 0.5 42 0.5H58C62.1421 0.5 65.5 3.85786 65.5 8V24C65.5 28.1421 62.1421 31.5 58 31.5H42C37.8579 31.5 34.5 28.1421 34.5 24V8Z" fill="white"/>
<path d="M34.5 8C34.5 3.85786 37.8579 0.5 42 0.5H58C62.1421 0.5 65.5 3.85786 65.5 8V24C65.5 28.1421 62.1421 31.5 58 31.5H42C37.8579 31.5 34.5 28.1421 34.5 24V8Z" stroke="#E3E3E3"/>
<path d="M47.3403 13.1317H52.6551C52.8811 13.1317 53.0642 13.3028 53.0642 13.5144V18.4875C53.0642 18.6987 52.8811 18.8701 52.6551 18.8701H47.3403C47.1143 18.8701 46.9312 18.6987 46.9312 18.4875V13.5144C46.9312 13.3032 47.1143 13.1317 47.3403 13.1317Z" fill="black"/>
<path d="M41.2092 7.39258H46.524C46.75 7.39258 46.9327 7.56401 46.9327 7.77558V12.7487C46.9327 12.9599 46.7496 13.1314 46.5236 13.1314H41.2092C40.9832 13.1314 40.8 12.9599 40.8 12.7487V7.77558C40.8 7.56401 40.9832 7.39258 41.2092 7.39258Z" fill="black"/>
<path d="M53.4761 7.39258H58.7913C59.0173 7.39258 59.2 7.56401 59.2 7.77558V12.7487C59.2 12.9599 59.0169 13.1314 58.7909 13.1314H53.4765C53.2505 13.1314 53.0674 12.9599 53.0674 12.7487V7.77558C53.0674 7.56401 53.2505 7.39258 53.4761 7.39258Z" fill="black"/>
<path d="M41.2092 18.8697H46.524C46.75 18.8697 46.9327 19.0412 46.9327 19.2523V24.2259C46.9327 24.4367 46.7496 24.6081 46.5236 24.6081H41.2092C40.9832 24.6081 40.8 24.4371 40.8 24.2259V19.2523C40.8 19.0412 40.9832 18.8697 41.2092 18.8697Z" fill="black"/>
<path d="M53.4761 18.8697H58.7909C59.0169 18.8697 59.2 19.0412 59.2 19.2523V24.2259C59.2 24.4367 59.0169 24.6081 58.7909 24.6081H53.4765C53.2505 24.6081 53.0674 24.4371 53.0674 24.2259V19.2523C53.0674 19.0412 53.2505 18.8697 53.4761 18.8697Z" fill="black"/>
<path d="M0.5 8C0.5 3.85786 3.85786 0.5 8 0.5H24C28.1421 0.5 31.5 3.85786 31.5 8V24C31.5 28.1421 28.1421 31.5 24 31.5H8C3.85786 31.5 0.5 28.1421 0.5 24V8Z" fill="white"/>
<path d="M0.5 8C0.5 3.85786 3.85786 0.5 8 0.5H24C28.1421 0.5 31.5 3.85786 31.5 8V24C31.5 28.1421 28.1421 31.5 24 31.5H8C3.85786 31.5 0.5 28.1421 0.5 24V8Z" stroke="#E3E3E3"/>
<path d="M11.962 14.3397L16.0018 10.3015L20.0434 14.343L22.3927 11.992L16.0018 5.59961L9.61099 11.9904L11.962 14.3397Z" fill="#F3BA2F"/>
<path d="M5.59985 16.0003L7.94997 13.6502L10.3001 16.0003L7.94997 18.3504L5.59985 16.0003Z" fill="#F3BA2F"/>
<path d="M11.9621 17.6606L16.002 21.7004L20.0435 17.6589L22.3945 20.0066L16.002 26.4007L9.60786 20.0082L11.9621 17.6606Z" fill="#F3BA2F"/>
<path d="M21.6997 16.0011L24.0498 13.651L26.3999 16.0011L24.0498 18.3512L21.6997 16.0011Z" fill="#F3BA2F"/>
<path d="M18.3857 15.9998L16.0018 13.6144L14.239 15.3772L14.0353 15.5793L13.6147 15.9998L13.618 16.0048L16.0018 18.3869L18.3873 15.9998H18.3857Z" fill="#F3BA2F"/>
<defs>
<linearGradient id="paint0_linear_1868_37470" x1="180.755" y1="16.3473" x2="192.582" y2="20.9978" gradientUnits="userSpaceOnUse">
<stop stop-color="#264CA2" stop-opacity="0"/>
<stop offset="1" stop-color="#234588"/>
</linearGradient>
<linearGradient id="paint1_linear_1868_37470" x1="125.755" y1="20.8661" x2="119.365" y2="11.0608" gradientUnits="userSpaceOnUse">
<stop offset="0.41" stop-color="#F47320"/>
<stop offset="0.5" stop-color="#F16D21"/>
<stop offset="0.62" stop-color="#E95C22"/>
<stop offset="0.75" stop-color="#DC4125"/>
<stop offset="0.81" stop-color="#D53127"/>
</linearGradient>
</defs>
</svg>
