<svg width="36" height="36" viewBox="0 0 36 36" fill="none" xmlns="http://www.w3.org/2000/svg">
<g id="&#231;&#188;&#150;&#231;&#187;&#132;">
<circle id="&#230;&#164;&#173;&#229;&#156;&#134;&#229;&#189;&#162;" cx="18" cy="18" r="18" fill="#5B8EF4"/>
<g id="Icon / Basic">
<g id="&#240;&#159;&#166;&#134; icon &#34;gift&#34;">
<path id="Vector" d="M22.9701 17.9629V23.9423C22.9701 24.0712 22.8657 24.1756 22.7368 24.1756H13.2631C13.1343 24.1756 13.0298 24.0712 13.0298 23.9423V17.9629" stroke="white" stroke-width="1.4" stroke-linecap="round" stroke-linejoin="round"/>
<path id="Vector_2" d="M23.9795 14.4531H12.0207C11.8918 14.4531 11.7874 14.5576 11.7874 14.6865V17.2533C11.7874 17.3822 11.8918 17.4867 12.0207 17.4867H23.9795C24.1083 17.4867 24.2128 17.3822 24.2128 17.2533V14.6865C24.2128 14.5576 24.1083 14.4531 23.9795 14.4531Z" stroke="white" stroke-width="1.4" stroke-linecap="round" stroke-linejoin="round"/>
<path id="Vector_3" d="M21.6341 11.7632L18.4234 13.6169C18.2535 13.715 18.2732 13.9663 18.4564 14.0367L19.4105 14.4035C19.4388 14.4144 19.469 14.4197 19.4994 14.419L21.1944 14.3812L21.5407 14.1369L22.6181 13.4455C22.723 13.3782 22.7564 13.2404 22.6941 13.1325L21.9529 11.8486C21.8884 11.737 21.7457 11.6987 21.6341 11.7632Z" stroke="white" stroke-width="1.4" stroke-linecap="round" stroke-linejoin="round"/>
<path id="Vector_4" d="M14.3659 11.7632L17.5766 13.6169C17.7465 13.715 17.7268 13.9663 17.5436 14.0367L16.5895 14.4035C16.5612 14.4144 16.531 14.4197 16.5006 14.419L14.8056 14.3812L14.4593 14.1369L13.3819 13.4455C13.277 13.3782 13.2436 13.2404 13.3059 13.1325L14.0471 11.8486C14.1116 11.737 14.2543 11.6987 14.3659 11.7632Z" stroke="white" stroke-width="1.4" stroke-linecap="round" stroke-linejoin="round"/>
</g>
</g>
</g>
</svg>
