<svg width="24" height="24" viewBox="0 0 24 24" fill="none" xmlns="http://www.w3.org/2000/svg">
<g id="gear">
<path id="Vector" d="M11.9553 14.5561C13.4799 14.5561 14.6459 13.3901 14.6459 11.8655C14.6459 10.3408 13.4799 9.17489 11.9553 9.17489C10.4306 9.17489 9.2647 10.3408 9.2647 11.8655C9.2647 13.3901 10.4306 14.5561 11.9553 14.5561ZM9.62344 3.52466C9.71313 2.6278 10.5203 2 11.4172 2H12.5831C13.4799 2 14.1974 2.6278 14.3768 3.52466C14.3768 3.88341 14.6459 4.15247 15.184 4.42152C15.6324 4.6009 16.0808 4.51121 16.3499 4.33184C17.0674 3.79372 18.0539 3.88341 18.6817 4.51121L19.4889 5.31839C20.1167 5.94619 20.2064 6.93274 19.6683 7.65022C19.4889 7.91928 19.3992 8.36771 19.5786 8.81614C19.758 9.26457 20.1167 9.53363 20.4755 9.62332C21.3723 9.713 22.0001 10.5202 22.0001 11.417V12.583C22.0001 13.4798 21.3723 14.1973 20.4755 14.3767C20.1167 14.3767 19.8477 14.6457 19.5786 15.1839C19.3992 15.6323 19.4889 16.0807 19.6683 16.3498C20.2064 17.0673 20.1167 18.0538 19.4889 18.6816L18.6817 19.4888C18.0539 20.1166 17.0674 20.2063 16.3499 19.6682C16.0808 19.4888 15.6324 19.3991 15.184 19.5785C14.7355 19.7578 14.4665 20.1166 14.3768 20.4753C14.2871 21.3722 13.4799 22 12.5831 22H11.4172C10.5203 22 9.80281 21.3722 9.62344 20.4753C9.62344 20.1166 9.35438 19.8475 8.81627 19.5785C8.36783 19.3991 7.9194 19.4888 7.65035 19.6682C6.93286 20.2063 5.94631 20.1166 5.31851 19.4888L4.51133 18.6816C3.88353 18.0538 3.79384 17.0673 4.33196 16.3498C4.51133 16.0807 4.60102 15.6323 4.42165 15.1839C4.24227 14.7354 3.88353 14.4664 3.52479 14.3767C2.62792 14.287 2.00012 13.4798 2.00012 12.583V11.417C2.00012 10.5202 2.62792 9.80269 3.52479 9.62332C3.88353 9.62332 4.15259 9.35426 4.42165 8.81614C4.60102 8.36771 4.51133 7.91928 4.33196 7.65022C3.88353 6.93274 3.97322 5.94619 4.60102 5.31839L5.40819 4.51121C6.036 3.88341 7.02254 3.79372 7.74003 4.33184C8.00909 4.51121 8.36783 4.6009 8.81627 4.42152C9.35438 4.24215 9.62344 3.88341 9.62344 3.52466Z" fill="white" fill-opacity="0.7"/>
</g>
</svg>
