<svg width="20" height="20" viewBox="0 0 20 20" fill="none" xmlns="http://www.w3.org/2000/svg">
<path d="M4.50837 10.0002C4.50837 9.38679 4.61307 8.79837 4.7983 8.24698L1.54626 5.81604C0.892877 7.114 0.553572 8.54717 0.555674 10.0002C0.555674 11.5038 0.911642 12.9221 1.54465 14.181L4.79508 11.7461C4.60555 11.1835 4.50872 10.5938 4.50837 10.0002Z" fill="#FBBC05"/>
<path d="M10.2206 4.41917C11.5816 4.41917 12.8114 4.89086 13.7779 5.66361L16.5894 2.91633C14.8764 1.45696 12.6802 0.55542 10.2206 0.55542C6.40158 0.55542 3.11893 2.69255 1.54688 5.81575L4.80052 8.24669C5.54951 6.02021 7.68532 4.41917 10.2206 4.41917Z" fill="#EA4335"/>
<path d="M10.2206 15.5805C7.68451 15.5805 5.5487 13.9794 4.79891 11.7529L1.54688 14.1839C3.11813 17.3071 6.40077 19.4442 10.2206 19.4442C12.5771 19.4442 14.8272 18.6256 16.5169 17.0905L13.4291 14.7546C12.5585 15.2915 11.4616 15.5805 10.2198 15.5805" fill="#34A853"/>
<path d="M19.4441 10C19.4441 9.4422 19.3555 8.84091 19.2243 8.28308H10.2188V11.9319H15.402C15.1435 13.1764 14.438 14.1326 13.4289 14.7549L16.5158 17.0908C18.2901 15.4793 19.4441 13.079 19.4441 10Z" fill="#4285F4"/>
</svg>
