<svg width="18" height="18" viewBox="0 0 18 18" fill="none" xmlns="http://www.w3.org/2000/svg">
<path d="M4.05744 9.00008C4.05744 8.44805 4.15167 7.91847 4.31837 7.42222L1.39154 5.23438C0.803491 6.40254 0.498117 7.69239 0.500009 9.00008C0.500009 10.3534 0.82038 11.6298 1.39009 12.7629L4.31548 10.5714C4.1449 10.0651 4.05775 9.53437 4.05744 9.00008" fill="#FBBC05"/>
<path d="M9.19794 3.97737C10.4229 3.97737 11.5297 4.4019 12.3995 5.09737L14.9298 2.62482C13.3881 1.31139 11.4115 0.5 9.19794 0.5C5.76083 0.5 2.80646 2.42342 1.3916 5.2343L4.31989 7.42214C4.99397 5.41831 6.9162 3.97737 9.19794 3.97737" fill="#EA4335"/>
<path d="M9.19794 14.0224C6.91548 14.0224 4.99325 12.5815 4.31844 10.5776L1.3916 12.7655C2.80573 15.5764 5.76011 17.4998 9.19794 17.4998C11.3188 17.4998 13.3439 16.763 14.8646 15.3815L12.0856 13.2791C11.3021 13.7623 10.3149 14.0224 9.19722 14.0224" fill="#34A853"/>
<path d="M17.5001 9.00033C17.5001 8.49829 17.4204 7.95712 17.3022 7.45508H9.19727V10.739H13.8622C13.6296 11.859 12.9946 12.7197 12.0864 13.2797L14.8647 15.382C16.4614 13.9317 17.5001 11.7714 17.5001 9.00033" fill="#4285F4"/>
</svg>
