<svg width="16" height="16" viewBox="0 0 16 16" fill="none" xmlns="http://www.w3.org/2000/svg">
<path d="M7.96683 12.0002C8.20016 12.0002 8.39739 11.9196 8.5585 11.7585C8.71961 11.5974 8.80016 11.4002 8.80016 11.1668C8.80016 10.9335 8.71961 10.7363 8.5585 10.5752C8.39739 10.4141 8.20016 10.3335 7.96683 10.3335C7.7335 10.3335 7.53627 10.4141 7.37516 10.5752C7.21405 10.7363 7.1335 10.9335 7.1335 11.1668C7.1335 11.4002 7.21405 11.5974 7.37516 11.7585C7.53627 11.9196 7.7335 12.0002 7.96683 12.0002ZM8.00016 14.6668C7.07794 14.6668 6.21127 14.4918 5.40016 14.1418C4.58905 13.7918 3.8835 13.3168 3.2835 12.7168C2.6835 12.1168 2.2085 11.4113 1.8585 10.6002C1.5085 9.78905 1.3335 8.92239 1.3335 8.00016C1.3335 7.07794 1.5085 6.21127 1.8585 5.40016C2.2085 4.58905 2.6835 3.8835 3.2835 3.2835C3.8835 2.6835 4.58905 2.2085 5.40016 1.8585C6.21127 1.5085 7.07794 1.3335 8.00016 1.3335C8.92239 1.3335 9.78905 1.5085 10.6002 1.8585C11.4113 2.2085 12.1168 2.6835 12.7168 3.2835C13.3168 3.8835 13.7918 4.58905 14.1418 5.40016C14.4918 6.21127 14.6668 7.07794 14.6668 8.00016C14.6668 8.92239 14.4918 9.78905 14.1418 10.6002C13.7918 11.4113 13.3168 12.1168 12.7168 12.7168C12.1168 13.3168 11.4113 13.7918 10.6002 14.1418C9.78905 14.4918 8.92239 14.6668 8.00016 14.6668ZM8.06683 5.1335C8.34461 5.1335 8.58627 5.22238 8.79183 5.40016C8.99739 5.57794 9.10016 5.80016 9.10016 6.06683C9.10016 6.31127 9.02516 6.52794 8.87516 6.71683C8.72516 6.90572 8.55572 7.0835 8.36683 7.25016C8.11127 7.47239 7.88627 7.71683 7.69183 7.9835C7.49739 8.25016 7.40016 8.55016 7.40016 8.8835C7.40016 9.03905 7.4585 9.16961 7.57516 9.27516C7.69183 9.38072 7.82794 9.4335 7.9835 9.4335C8.15016 9.4335 8.29183 9.37794 8.4085 9.26683C8.52516 9.15572 8.60016 9.01683 8.6335 8.85016C8.67794 8.61683 8.77794 8.4085 8.9335 8.22516C9.08905 8.04183 9.25572 7.86683 9.4335 7.70016C9.68905 7.45572 9.9085 7.18905 10.0918 6.90016C10.2752 6.61127 10.3668 6.28905 10.3668 5.9335C10.3668 5.36683 10.1363 4.90294 9.67516 4.54183C9.21405 4.18072 8.67794 4.00016 8.06683 4.00016C7.64461 4.00016 7.24183 4.08905 6.8585 4.26683C6.47516 4.44461 6.1835 4.71683 5.9835 5.0835C5.90572 5.21683 5.88072 5.3585 5.9085 5.5085C5.93627 5.6585 6.01127 5.77239 6.1335 5.85016C6.28905 5.93905 6.45016 5.96683 6.61683 5.9335C6.7835 5.90016 6.92239 5.80572 7.0335 5.65016C7.15572 5.4835 7.3085 5.35572 7.49183 5.26683C7.67516 5.17794 7.86683 5.1335 8.06683 5.1335Z" fill="white" fill-opacity="0.7"/>
</svg>
