<svg width="22" height="22" viewBox="0 0 22 22" fill="none" xmlns="http://www.w3.org/2000/svg">
<g id="info">
<path id="Vector" d="M11 15.5833C11.2597 15.5833 11.4774 15.4955 11.6531 15.3198C11.8288 15.1441 11.9166 14.9264 11.9166 14.6667V11C11.9166 10.7403 11.8288 10.5226 11.6531 10.3469C11.4774 10.1712 11.2597 10.0833 11 10.0833C10.7403 10.0833 10.5225 10.1712 10.3469 10.3469C10.1712 10.5226 10.0833 10.7403 10.0833 11V14.6667C10.0833 14.9264 10.1712 15.1441 10.3469 15.3198C10.5225 15.4955 10.7403 15.5833 11 15.5833ZM11 8.24999C11.2597 8.24999 11.4774 8.16215 11.6531 7.98645C11.8288 7.81076 11.9166 7.59305 11.9166 7.33333C11.9166 7.07361 11.8288 6.8559 11.6531 6.6802C11.4774 6.50451 11.2597 6.41666 11 6.41666C10.7403 6.41666 10.5225 6.50451 10.3469 6.6802C10.1712 6.8559 10.0833 7.07361 10.0833 7.33333C10.0833 7.59305 10.1712 7.81076 10.3469 7.98645C10.5225 8.16215 10.7403 8.24999 11 8.24999ZM11 20.1667C9.73192 20.1667 8.54026 19.926 7.42498 19.4448C6.3097 18.9635 5.33956 18.3104 4.51456 17.4854C3.68956 16.6604 3.03644 15.6903 2.55519 14.575C2.07394 13.4597 1.83331 12.2681 1.83331 11C1.83331 9.73194 2.07394 8.54027 2.55519 7.42499C3.03644 6.30972 3.68956 5.33958 4.51456 4.51458C5.33956 3.68958 6.3097 3.03645 7.42498 2.5552C8.54026 2.07395 9.73192 1.83333 11 1.83333C12.268 1.83333 13.4597 2.07395 14.575 2.5552C15.6903 3.03645 16.6604 3.68958 17.4854 4.51458C18.3104 5.33958 18.9635 6.30972 19.4448 7.42499C19.926 8.54027 20.1666 9.73194 20.1666 11C20.1666 12.2681 19.926 13.4597 19.4448 14.575C18.9635 15.6903 18.3104 16.6604 17.4854 17.4854C16.6604 18.3104 15.6903 18.9635 14.575 19.4448C13.4597 19.926 12.268 20.1667 11 20.1667Z" fill="#33B0FD"/>
</g>
</svg>
