<svg width="16" height="16" viewBox="0 0 16 16" fill="none" xmlns="http://www.w3.org/2000/svg">
<g id="medium-mono" clip-path="url(#clip0_2179_4119)">
<path id="Vector" d="M9.02667 8.00004C9.03022 9.2012 8.5569 10.3547 7.71068 11.2071C6.86445 12.0596 5.7145 12.5414 4.51334 12.5467C3.31218 12.5414 2.16222 12.0596 1.316 11.2071C0.46977 10.3547 -0.00354001 9.2012 4.50672e-06 8.00004C-0.00354001 6.79887 0.46977 5.6454 1.316 4.79292C2.16222 3.94045 3.31218 3.45866 4.51334 3.45337C5.7145 3.45866 6.86445 3.94045 7.71068 4.79292C8.5569 5.6454 9.03022 6.79887 9.02667 8.00004ZM13.9733 8.00004C13.9733 10.36 12.9667 12.28 11.72 12.28C10.4733 12.28 9.46 10.36 9.46 8.00004C9.46 5.64004 10.4733 3.72004 11.72 3.72004C12.9667 3.72004 13.9733 5.64004 13.9733 8.00004ZM16 8.00004C16 10.1134 15.6467 11.8334 15.2067 11.8334C14.7667 11.8334 14.4133 10.1134 14.4133 8.00004C14.4133 5.8867 14.7667 4.1667 15.2067 4.1667C15.6467 4.1667 16 5.8867 16 8.00004Z" fill="#25272A"/>
</g>
<defs>
<clipPath id="clip0_2179_4119">
<rect width="16" height="16" fill="white"/>
</clipPath>
</defs>
</svg>
