<svg width="48" height="12" viewBox="0 0 48 12" fill="none" xmlns="http://www.w3.org/2000/svg">
<path d="M32.3316 0.0544434C32.0043 0.0544434 31.7316 0.327171 31.7316 0.654443V1.30899V1.96353V3.10899C31.1861 2.72717 30.5316 2.45444 29.8225 2.45444C28.0771 2.45444 26.6589 3.87263 26.6589 5.61808C26.6589 7.36353 28.0771 8.78172 29.8225 8.78172C31.568 8.78172 32.9861 7.36353 32.9861 5.61808V1.96353V1.30899V0.654443C32.9316 0.327171 32.6589 0.0544434 32.3316 0.0544434ZM31.6771 5.61808C31.6771 6.65444 30.8043 7.52717 29.768 7.52717C28.7316 7.52717 27.8589 6.65444 27.8589 5.61808C27.8589 4.58172 28.7316 3.70899 29.768 3.70899C30.8589 3.70899 31.6771 4.58172 31.6771 5.61808Z" fill="white" fill-opacity="0.7"/>
<path d="M19.35 6.38182C19.35 7.69091 18.3136 8.78182 17.0045 8.89091C16.95 8.89091 17.2227 8.89091 13.6773 8.89091C13.35 8.89091 13.0227 8.61818 13.0227 8.23636V0.654545C13.0227 0.327273 13.2955 0 13.6773 0C13.6773 0 13.4045 0 16.1318 0C17.4409 0.0545455 18.5864 1.14545 18.5864 2.50909C18.5864 3.10909 18.3682 3.65455 18.0409 4.09091C18.8045 4.58182 19.35 5.4 19.35 6.38182ZM15.9682 1.30909H14.2773V3.81818H15.9682C16.6773 3.81818 17.2773 3.27273 17.2773 2.50909C17.2773 1.85455 16.6773 1.30909 15.9682 1.30909ZM18.0955 6.38182C18.0955 5.72727 17.55 5.12727 16.8409 5.12727H14.2773V7.63636H16.8955C17.4955 7.58182 18.0955 7.03636 18.0955 6.38182Z" fill="white" fill-opacity="0.7"/>
<path d="M23.877 3.10879C23.877 3.43606 23.6043 3.76333 23.2225 3.76333C22.1861 3.76333 21.3134 4.63606 21.3134 5.67243V8.18152C21.3134 8.50879 21.0406 8.83606 20.7134 8.83606C20.3861 8.83606 20.0588 8.56333 20.0588 8.18152V5.67243C20.0588 3.92697 21.477 2.50879 23.2225 2.50879C23.6043 2.50879 23.877 2.78152 23.877 3.10879Z" fill="white" fill-opacity="0.7"/>
<path d="M24.8042 1.09091C24.6951 0.981818 24.6406 0.818182 24.6406 0.654545C24.6406 0.490909 24.6951 0.327273 24.8042 0.218182C24.9133 0.0545455 25.0769 0 25.2406 0C25.4042 0 25.5679 0.0545456 25.6769 0.163636C25.786 0.272727 25.8406 0.436364 25.8406 0.6C25.8406 0.763636 25.786 0.927273 25.6769 1.03636C25.5679 1.14545 25.4042 1.2 25.2406 1.2C25.0769 1.25455 24.9133 1.2 24.8042 1.09091Z" fill="white" fill-opacity="0.7"/>
<path d="M24.6406 8.23645V3.16372C24.6406 2.83645 24.9133 2.56372 25.2951 2.56372C25.6224 2.56372 25.8951 2.83645 25.8951 3.16372V8.23645C25.8951 8.56372 25.6224 8.89099 25.2951 8.89099C24.9133 8.83645 24.6406 8.56372 24.6406 8.23645Z" fill="white" fill-opacity="0.7"/>
<path d="M39.9679 8.83606C39.9679 10.5815 38.5497 11.9997 36.8042 11.9997C35.6042 11.9997 34.5133 11.3452 33.9679 10.1997C33.8042 9.87243 33.9679 9.54515 34.2406 9.38152C34.5679 9.21788 34.8951 9.38152 35.0588 9.65424C35.386 10.3088 36.0406 10.7452 36.8042 10.7452C37.8406 10.7452 38.7133 9.92697 38.7133 8.89061C38.7133 8.89061 38.7133 8.89061 38.7133 8.18152C38.1679 8.56333 37.5133 8.83606 36.8042 8.83606C35.0588 8.83606 33.6406 7.41788 33.6406 5.67242C33.6406 3.92697 35.0588 2.50879 36.8042 2.50879C38.5497 2.50879 39.9679 3.92697 39.9679 5.67242C39.9679 5.67242 39.9679 5.67243 39.9679 8.83606ZM38.7679 5.67242C38.7679 4.63606 37.8951 3.76333 36.8588 3.76333C35.8224 3.76333 34.9497 4.63606 34.9497 5.67242C34.9497 6.70879 35.8224 7.58152 36.8588 7.58152C37.8951 7.58152 38.7679 6.70879 38.7679 5.67242Z" fill="white" fill-opacity="0.7"/>
<path d="M47.0589 5.67277C47.0589 6.00004 46.7862 6.27277 46.4044 6.27277H42.0407C42.3135 7.03641 43.0226 7.58186 43.8407 7.58186C44.1135 7.58186 44.6589 7.58186 45.2589 7.1455C45.5316 6.98186 45.9135 7.1455 46.0771 7.41823C46.2407 7.7455 46.0771 8.07277 45.7498 8.23641C44.9316 8.78186 44.2771 8.78186 43.7862 8.78186C42.0407 8.78186 40.6226 7.36368 40.6226 5.61823C40.6226 3.87277 42.0407 2.45459 43.7862 2.45459C45.4226 2.50914 47.0589 3.60004 47.0589 5.67277ZM42.0953 5.01823H45.7498C45.4771 4.1455 44.6589 3.70914 43.8953 3.70914C43.0771 3.76368 42.368 4.30914 42.0953 5.01823Z" fill="white" fill-opacity="0.7"/>
<path d="M8.38631 3.76274C7.94995 3.05365 7.13177 2.56274 6.2045 2.56274C4.78631 2.56274 3.6954 3.7082 3.6954 5.07184C3.6954 5.56274 3.80449 5.99911 4.02268 6.38093L8.38631 3.76274Z" fill="white" fill-opacity="0.7"/>
<path d="M12.2045 1.3085C12.15 1.25396 12.0955 1.19941 12.0409 1.25396C10.8955 1.47214 9.69545 1.25396 8.71364 0.708501C8.00455 0.272137 7.13182 0.0539551 6.20455 0.0539551C3.69546 0.0539551 1.62273 1.9085 1.24091 4.3085V4.36305C1.24091 4.47214 1.24091 4.58123 1.18636 4.69032C1.18636 4.74486 1.18636 4.74486 1.18636 4.79941C1.18636 4.9085 1.18636 4.96305 1.18636 5.07214C1.18636 5.07214 1.18636 5.07214 1.18636 5.12668C1.18636 6.32668 0.804545 7.47214 0.0409091 8.39941C-0.0136364 8.45395 -0.0136364 8.5085 0.0409091 8.56305C0.0954546 8.61759 0.204546 8.67214 0.259091 8.61759L1.89545 7.63577L2.71364 7.14486L2.93182 6.98123C2.60455 6.43577 2.38636 5.78123 2.38636 5.07214C2.38636 2.99941 4.07727 1.3085 6.15 1.3085C7.51364 1.3085 8.71364 2.07214 9.36818 3.16305L10.4591 2.5085L12.0409 1.52668C12.2591 1.47214 12.2591 1.36305 12.2045 1.3085Z" fill="white" fill-opacity="0.7"/>
<path d="M9.96824 4.79962C9.96824 4.74508 9.96824 4.74508 9.96824 4.79962C9.96824 4.69053 9.91369 4.63599 9.8046 4.63599C9.75006 4.63599 9.75006 4.63599 9.75006 4.63599L8.76824 5.23599C8.65915 6.54508 7.56824 7.58144 6.25915 7.58144C5.33187 7.58144 4.51369 7.09053 4.07733 6.3269L2.98642 6.98144C3.64097 8.07235 4.84096 8.83599 6.25915 8.83599C8.33187 8.83599 10.0228 7.14508 10.0228 5.07235C10.0228 4.96326 10.0228 4.85417 9.96824 4.79962Z" fill="white" fill-opacity="0.7"/>
</svg>
