<svg width="64" height="64" viewBox="0 0 64 64" fill="none" xmlns="http://www.w3.org/2000/svg">
<path id="pc-bg" fill-rule="evenodd" clip-rule="evenodd" d="M0 0H60C62.2091 0 64 1.79086 64 4V64L0 0Z" fill="#E7F0FC"/>
<rect opacity="0.01" x="12.5" y="4.5" width="47" height="47" fill="#25272A" stroke="#979797"/>
<path id="pc-line" fill-rule="evenodd" clip-rule="evenodd" d="M40.0968 40.0968L43 43H45.6452C46.4469 43 47.0968 42.3501 47.0968 41.5484C47.0968 40.7467 46.4469 40.0968 45.6452 40.0968H40.0968ZM22.9032 22.9032L20 20V16.871C20 14.7331 21.7331 13 23.871 13H49.0323C51.1701 13 52.9032 14.7331 52.9032 16.871V29.4516V32.3548V33.3226C52.9032 35.4605 51.1701 37.1935 49.0323 37.1935H37.1935L34.2903 34.2903H49.0323C49.5286 34.2903 49.9376 33.9167 49.9935 33.4354L50 33.3226V32.3548H32.3548L29.4516 29.4516H50V16.871C50 16.3747 49.6264 15.9656 49.1451 15.9097L49.0323 15.9032H23.871C23.3747 15.9032 22.9656 16.2768 22.9097 16.7581L22.9032 16.871V22.9032Z" fill="#5B8EF4"/>
</svg>
