<svg width="18" height="18" viewBox="0 0 18 18" fill="none" xmlns="http://www.w3.org/2000/svg">
<path fill-rule="evenodd" clip-rule="evenodd" d="M4.2998 0.5C3.47138 0.5 2.7998 1.17157 2.7998 2V16C2.7998 16.8284 3.47138 17.5 4.29981 17.5H13.6998C14.5282 17.5 15.1998 16.8284 15.1998 16V2C15.1998 1.17157 14.5282 0.5 13.6998 0.5H4.2998ZM4.29932 3.00342C4.29932 2.45113 4.74703 2.00342 5.29932 2.00342H12.6993C13.2516 2.00342 13.6993 2.45113 13.6993 3.00342V12.5C13.6993 13.0523 13.2516 13.5 12.6993 13.5H5.29932C4.74703 13.5 4.29932 13.0523 4.29932 12.5V3.00342ZM7.74951 15.2394C7.74951 14.8804 8.04053 14.5894 8.39951 14.5894H9.59951C9.9585 14.5894 10.2495 14.8804 10.2495 15.2394C10.2495 15.5983 9.9585 15.8894 9.59951 15.8894H8.39951C8.04053 15.8894 7.74951 15.5983 7.74951 15.2394Z" fill="#477BFF"/>
</svg>
