<svg width="22" height="22" viewBox="0 0 22 22" fill="none" xmlns="http://www.w3.org/2000/svg">
<path fill-rule="evenodd" clip-rule="evenodd" d="M4.97426 0H16.7468C17.7221 0 18.5127 0.73873 18.5127 1.65V20.35C18.5127 21.2613 17.7221 22 16.7468 22H4.97426C3.99899 22 3.20837 21.2613 3.20837 20.35V1.65C3.20837 0.73873 3.99899 0 4.97426 0ZM9.90399 17.6956C9.37572 17.6956 8.94747 18.1239 8.94747 18.6521C8.94747 19.1804 9.37572 19.6087 9.90399 19.6087H11.817C12.3453 19.6087 12.7736 19.1804 12.7736 18.6521C12.7736 18.1239 12.3453 17.6956 11.817 17.6956H9.90399Z" fill="#5B8EF4"/>
<rect x="5.12134" y="1.91306" width="11.4783" height="13.8696" rx="1.29412" fill="#BDD4FF"/>
</svg>
