<svg width="20" height="20" viewBox="0 0 20 20" fill="none" xmlns="http://www.w3.org/2000/svg">
<path fill-rule="evenodd" clip-rule="evenodd" d="M4.74777 0.5C3.82187 0.5 3.07129 1.25058 3.07129 2.17647V17.8235C3.07129 18.7494 3.82187 19.5 4.74777 19.5H15.2537C16.1796 19.5 16.9302 18.7494 16.9302 17.8235V2.17647C16.9302 1.25058 16.1796 0.5 15.2537 0.5H4.74777ZM4.74684 3.29781C4.74684 2.68055 5.24723 2.18016 5.86449 2.18016H14.1351C14.7524 2.18016 15.2528 2.68055 15.2528 3.29781V13.9116C15.2528 14.5289 14.7524 15.0293 14.1351 15.0293H5.86449C5.24723 15.0293 4.74684 14.5289 4.74684 13.9116V3.29781ZM8.60313 16.9733C8.60313 16.572 8.92839 16.2468 9.32961 16.2468H10.6708C11.072 16.2468 11.3973 16.572 11.3973 16.9733C11.3973 17.3745 11.072 17.6997 10.6708 17.6997H9.32961C8.92839 17.6997 8.60313 17.3745 8.60313 16.9733Z" fill="#515A62"/>
</svg>
