<svg width="87" height="20" viewBox="0 0 87 20" fill="none" xmlns="http://www.w3.org/2000/svg">
<g id="Portkey logo">
<g id="Vector">
<path fill-rule="evenodd" clip-rule="evenodd" d="M8.48275 3.63781C5.82508 4.81163 4.15364 7.68247 5.12671 10.5354C5.71512 12.2606 6.90089 13.49 8.65937 14.1183C11.7344 15.2173 14.9444 12.8009 14.5844 9.65993C14.4314 8.32495 13.7582 7.30845 12.3907 6.88783C11.3735 6.57491 10.4 6.72111 9.60567 7.46533C8.9315 8.09627 8.67592 8.87339 8.94593 9.77663C9.09496 10.2733 9.45284 10.5824 9.93981 10.7299C10.3673 10.859 10.698 10.6722 10.9528 10.3148C10.9014 10.2284 10.8564 10.134 10.794 10.0528C10.4616 9.62017 10.7311 8.99095 11.0186 8.72891C11.4092 8.37283 12.0417 8.34035 12.4574 8.63529C13.1315 9.11277 13.4381 10.3828 13.0717 11.1796C12.4586 12.5124 10.8823 13.2882 9.43586 12.9108C7.15223 12.3149 6.02632 10.0446 6.76334 7.85005C7.74278 4.93389 11.0347 3.65833 13.84 5.05699C16.1081 6.18721 16.95 8.16081 16.8596 10.5101C16.7114 14.3783 12.8348 17.2479 8.94762 16.5019C5.17764 15.7787 2.37818 12.1439 2.579 8.70669C2.65287 7.43753 2.9335 6.24919 3.57839 5.15873C5.2562 2.32293 7.8697 0.988389 11.1387 0.772509C11.9993 0.715669 12.8671 0.763969 13.6869 0.764389C13.6419 0.744309 13.5391 0.693429 13.4321 0.653249C11.8358 0.051389 10.186 -0.140551 8.49549 0.102249C7.44727 0.232209 6.47974 0.517329 5.60007 0.925129C5.58394 0.927689 5.56484 0.933249 5.54148 0.943069C5.1458 1.11277 5.07957 0.722929 4.93905 0.604949C4.80235 0.490389 4.82017 0.632729 4.82017 0.632729C4.93949 1.20425 4.6406 1.43465 4.60026 1.46287C4.35105 1.61805 4.11204 1.78561 3.88108 1.96173C3.87429 1.96471 3.86919 1.96471 3.86198 1.96813C3.31644 2.21863 3.08973 1.79543 2.83881 1.66677C2.57348 1.53083 2.67368 1.75397 2.67368 1.75397C3.00228 2.41141 2.71866 2.97395 2.6656 3.06885C2.43296 3.32149 2.21515 3.58695 2.01137 3.86265C1.99014 3.87633 1.96935 3.88915 1.94514 3.91095C1.40937 4.39869 0.992463 4.01269 0.661317 3.94003C0.296201 3.86051 0.502953 4.10119 0.502953 4.10119C1.17841 4.79753 0.964864 5.63493 0.964864 5.63493C0.0970955 7.52305 -0.212824 9.70909 0.147613 11.9028C1.33253 19.1137 10.1415 22.5193 15.9157 17.8741C17.7909 16.3655 19.0918 13.4596 19.229 11.0556C19.3265 9.34831 18.8022 7.79875 17.8355 6.39581C15.7845 3.41895 11.6851 2.22333 8.48275 3.63781Z" fill="#E3E3E3"/>
<path d="M26.4065 12.8439V11.1278H29.033C29.9368 11.1278 30.609 10.9522 31.0496 10.6011C31.5014 10.2386 31.7274 9.6439 31.7274 8.81699C31.7274 8.08071 31.5184 7.52566 31.1004 7.15186C30.6824 6.77805 30.0385 6.59115 29.1686 6.59115H26.4065V4.89204H29.2194C29.9425 4.89204 30.592 4.97699 31.1682 5.1469C31.7443 5.31681 32.2357 5.56602 32.6424 5.89451C33.0491 6.22301 33.3598 6.64212 33.5744 7.15186C33.7891 7.65026 33.8964 8.22796 33.8964 8.88496C33.8964 9.74584 33.6987 10.4708 33.3033 11.0598C32.9192 11.6489 32.3431 12.0963 31.5749 12.4021C30.818 12.6966 29.8747 12.8439 28.745 12.8439H26.4065ZM25 16.1062V4.89204H27.1351V16.1062H25Z" fill="#E3E3E3"/>
<path d="M39.0551 16.3271C38.1852 16.3271 37.417 16.1515 36.7505 15.8004C36.084 15.4379 35.5587 14.9112 35.1746 14.2202C34.8018 13.5179 34.6154 12.657 34.6154 11.6375C34.6154 10.5954 34.8074 9.73451 35.1915 9.05487C35.5869 8.36389 36.1179 7.8485 36.7844 7.50867C37.4509 7.16885 38.2022 6.99894 39.0382 6.99894C39.908 6.99894 40.6762 7.17451 41.3428 7.52567C42.0093 7.87682 42.5346 8.40354 42.9187 9.10584C43.3028 9.79682 43.4948 10.6577 43.4948 11.6885C43.4948 12.7306 43.3028 13.5972 42.9187 14.2881C42.5346 14.9791 42.0036 15.4945 41.3258 15.8343C40.6593 16.1628 39.9024 16.3271 39.0551 16.3271ZM39.1398 14.6959C39.6143 14.6959 40.0154 14.5883 40.343 14.3731C40.6706 14.1466 40.9191 13.8124 41.0886 13.3706C41.2693 12.9289 41.3597 12.4021 41.3597 11.7904C41.3597 11.1448 41.2637 10.5954 41.0716 10.1423C40.8909 9.67788 40.6254 9.32106 40.2752 9.07186C39.9363 8.82266 39.507 8.69805 38.9873 8.69805C38.5354 8.69805 38.1401 8.81133 37.8011 9.03788C37.4622 9.2531 37.2024 9.57593 37.0216 10.0064C36.8522 10.4368 36.7675 10.9692 36.7675 11.6035C36.7675 12.6004 36.9765 13.365 37.3945 13.8973C37.8237 14.4297 38.4055 14.6959 39.1398 14.6959Z" fill="#E3E3E3"/>
<path d="M44.9049 16.1062V7.21982H46.7011L46.6672 10.2782H46.9723C47.0739 9.55328 47.2321 8.95292 47.4467 8.47717C47.6614 7.99009 47.9607 7.62761 48.3448 7.38973C48.7289 7.14053 49.2034 7.01593 49.7683 7.01593C49.8812 7.01593 49.9999 7.02159 50.1241 7.03292C50.2597 7.04425 50.4065 7.07257 50.5647 7.11788L50.48 9.3777C50.2992 9.30974 50.1128 9.26443 49.9208 9.24177C49.74 9.20779 49.5706 9.1908 49.4124 9.1908C48.9718 9.1908 48.5877 9.30407 48.2601 9.53062C47.9438 9.75717 47.684 10.08 47.4806 10.4991C47.2886 10.9069 47.1417 11.394 47.04 11.9604V16.1062H44.9049Z" fill="#E3E3E3"/>
<path d="M55.8719 16.3101C54.9343 16.3101 54.2451 16.0609 53.8046 15.5625C53.364 15.0527 53.1437 14.2655 53.1437 13.2007V8.93593H51.8389L51.8728 7.23681H52.737C53.0646 7.23681 53.3075 7.18584 53.4657 7.08389C53.6238 6.98195 53.7198 6.80071 53.7537 6.54018L53.9571 5.24885H55.1941V7.21982H57.5326V9.00389H55.1941V13.1158C55.1941 13.5349 55.2901 13.8407 55.4822 14.0333C55.6855 14.2258 55.9849 14.3221 56.3803 14.3221C56.5949 14.3221 56.8039 14.2995 57.0073 14.2542C57.2219 14.1975 57.4196 14.1069 57.6004 13.9823V16.0212C57.2501 16.1345 56.9282 16.2081 56.6345 16.2421C56.352 16.2874 56.0979 16.3101 55.8719 16.3101Z" fill="#E3E3E3"/>
<path d="M59.1806 16.1062V4.02549H61.2819V10.805C61.666 10.5671 62.0331 10.3065 62.3833 10.0234C62.7335 9.72885 63.0555 9.42301 63.3492 9.10584C63.6429 8.78867 63.9028 8.4715 64.1287 8.15434C64.3546 7.82584 64.5411 7.51434 64.6879 7.21982H67.145C66.9643 7.66159 66.727 8.0977 66.4333 8.52814C66.1396 8.95858 65.795 9.35505 65.3996 9.71752C65.0155 10.08 64.5806 10.3972 64.0948 10.669C63.609 10.9296 63.0894 11.1108 62.5358 11.2127V11.4506C63.2362 11.3487 63.8237 11.3827 64.2982 11.5526C64.7726 11.7225 65.1737 11.9773 65.5013 12.3172C65.8289 12.657 66.1 13.0535 66.3147 13.5065C66.5406 13.9483 66.7496 14.4014 66.9417 14.8658L67.3822 16.1062H65.0268L64.7557 15.2906C64.541 14.7242 64.3151 14.2258 64.0779 13.7954C63.8519 13.3536 63.5639 13.0138 63.2137 12.7759C62.8747 12.5267 62.4342 12.4021 61.8919 12.4021H61.2819V16.1062H59.1806Z" fill="#E3E3E3"/>
<path d="M72.5169 16.3271C71.8052 16.3271 71.1669 16.2251 70.6021 16.0212C70.0485 15.8173 69.5797 15.5228 69.1956 15.1377C68.8115 14.7412 68.5178 14.2655 68.3144 13.7104C68.1111 13.1554 68.0094 12.5267 68.0094 11.8244C68.0094 11.1221 68.1055 10.4765 68.2975 9.88743C68.5008 9.29841 68.7889 8.78867 69.1617 8.35823C69.5345 7.92779 69.9864 7.59363 70.5174 7.35575C71.0596 7.11788 71.6753 6.99894 72.3644 6.99894C73.0084 6.99894 73.5845 7.10655 74.0929 7.32177C74.6012 7.53699 75.0305 7.85982 75.3807 8.29027C75.7309 8.70938 75.9908 9.23611 76.1602 9.87044C76.3297 10.4935 76.3862 11.2184 76.3297 12.0453L69.399 12.0963V10.8559L75.0927 10.805L74.347 11.5016C74.4148 10.8559 74.364 10.3292 74.1945 9.92142C74.0251 9.5023 73.7822 9.19646 73.4659 9.00389C73.1496 8.8 72.7881 8.69805 72.3814 8.69805C71.9182 8.69805 71.5115 8.82265 71.1613 9.07186C70.8111 9.30973 70.54 9.66088 70.3479 10.1253C70.1672 10.5784 70.0768 11.1335 70.0768 11.7904C70.0768 12.7759 70.2914 13.5122 70.7207 13.9993C71.1613 14.4864 71.76 14.7299 72.5169 14.7299C72.8558 14.7299 73.1383 14.6903 73.3642 14.611C73.6014 14.5204 73.7991 14.4071 73.9573 14.2712C74.1155 14.1239 74.2397 13.9596 74.3301 13.7784C74.4318 13.5972 74.5109 13.4046 74.5673 13.2007L76.4314 13.6255C76.341 14.0446 76.1941 14.4184 75.9908 14.7469C75.7874 15.0754 75.5219 15.3586 75.1943 15.5965C74.878 15.8343 74.4996 16.0156 74.059 16.1402C73.6184 16.2648 73.1044 16.3271 72.5169 16.3271Z" fill="#E3E3E3"/>
<path d="M81.3695 19.1476C80.9176 19.1476 80.4601 19.1023 79.9969 19.0117C79.5337 18.9211 79.0988 18.7795 78.6921 18.5869C78.2967 18.4057 77.9634 18.1678 77.6923 17.8733L78.421 16.1062C78.7486 16.48 79.1722 16.7632 79.6919 16.9558C80.2115 17.1483 80.7369 17.2446 81.2678 17.2446C81.8892 17.2446 82.4032 17.1143 82.8099 16.8538C83.2166 16.6046 83.5272 16.2138 83.7419 15.6814C83.9565 15.149 84.0751 14.4864 84.0977 13.6935L84.2163 12.0793H83.8605C83.7475 12.8496 83.5611 13.4782 83.3013 13.9653C83.0414 14.4411 82.7138 14.7922 82.3184 15.0188C81.9343 15.234 81.4825 15.3416 80.9628 15.3416C80.3189 15.3416 79.7766 15.1773 79.336 14.8488C78.8954 14.5204 78.5622 14.0333 78.3362 13.3876C78.1216 12.7419 78.0143 11.9434 78.0143 10.9919V7.21982H80.1664V10.4991C80.1664 11.5639 80.2963 12.3398 80.5561 12.8269C80.8159 13.3027 81.2113 13.5405 81.7423 13.5405C82.0247 13.5405 82.2845 13.4669 82.5218 13.3196C82.759 13.1611 82.9567 12.9402 83.1149 12.657C83.2843 12.3625 83.4142 12 83.5046 11.5696C83.6063 11.1391 83.6628 10.6464 83.6741 10.0913V7.21982H85.8262V13.7784C85.8262 14.492 85.764 15.1377 85.6398 15.7154C85.5268 16.2818 85.3517 16.7745 85.1144 17.1936C84.8772 17.6241 84.5778 17.9865 84.2163 18.2811C83.8661 18.5756 83.4538 18.7908 82.9793 18.9267C82.5048 19.074 81.9682 19.1476 81.3695 19.1476Z" fill="#E3E3E3"/>
</g>
</g>
</svg>
