<svg width="25" height="24" viewBox="0 0 25 24" fill="none" xmlns="http://www.w3.org/2000/svg">
<path fill-rule="evenodd" clip-rule="evenodd" d="M11.2489 4.36537C8.03775 5.77395 6.01824 9.21897 7.19394 12.6424C7.90489 14.7127 9.33758 16.188 11.4623 16.942C15.1776 18.2609 19.0561 15.3611 18.6211 11.5919C18.4364 9.98994 17.6229 8.77013 15.9706 8.26538C14.7416 7.8899 13.5654 8.06533 12.6056 8.95838C11.7911 9.71551 11.4823 10.6481 11.8085 11.7319C11.9885 12.328 12.421 12.6989 13.0093 12.8758C13.5259 13.0308 13.9255 12.8066 14.2332 12.3778C14.1712 12.2741 14.1168 12.1608 14.0414 12.0633C13.6398 11.5442 13.9655 10.7891 14.3128 10.4747C14.7847 10.0474 15.549 10.0084 16.0512 10.3623C16.8657 10.9353 17.2361 12.4593 16.7934 13.4155C16.0527 15.0149 14.1481 15.9459 12.4004 15.4929C9.64125 14.7779 8.28089 12.0536 9.17138 9.42005C10.3548 5.92065 14.3322 4.38999 17.7219 6.06838C20.4621 7.42464 21.4793 9.79296 21.37 12.6122C21.191 17.2539 16.5072 20.6974 11.8105 19.8023C7.25549 18.9344 3.87305 14.5727 4.11568 10.448C4.20493 8.92504 4.544 7.49902 5.32318 6.19047C7.35039 2.78751 10.5082 1.18606 14.4579 0.927017C15.4977 0.858793 16.5462 0.916758 17.5367 0.917271C17.4823 0.893162 17.3582 0.83212 17.2289 0.783902C15.3002 0.0616583 13.3068 -0.168659 11.2642 0.1227C9.99776 0.278639 8.82873 0.620781 7.76588 1.11014C7.74639 1.11322 7.72331 1.11989 7.69509 1.13169C7.21702 1.33533 7.137 0.867514 6.96721 0.725938C6.80204 0.588465 6.82358 0.75928 6.82358 0.75928C6.96772 1.4451 6.6066 1.72159 6.55787 1.75544C6.25676 1.94165 5.96797 2.14272 5.68892 2.35406C5.68071 2.35765 5.67456 2.35765 5.66584 2.36176C5.00669 2.66235 4.73277 2.15452 4.42961 2.00012C4.10901 1.837 4.23007 2.10477 4.23007 2.10477C4.6271 2.89369 4.28444 3.56875 4.22032 3.68262C3.93922 3.98578 3.67608 4.30433 3.42986 4.63518C3.40421 4.6516 3.37907 4.66699 3.34984 4.69315C2.70248 5.27843 2.19876 4.81523 1.79865 4.72803C1.35751 4.63262 1.60732 4.92141 1.60732 4.92141C2.42344 5.75702 2.16542 6.7619 2.16542 6.7619L2.16747 6.76293C1.11899 9.02866 0.742475 11.6509 1.17798 14.2834C2.60964 22.9365 13.253 27.0232 20.2297 21.4489C22.4954 19.6387 24.0671 16.1516 24.2328 13.2667C24.3508 11.218 23.7173 9.35849 22.5493 7.67497C20.0712 4.10273 15.1181 2.66799 11.2489 4.36537Z" fill="#5B8EF4"/>
</svg>
