<?xml version="1.0" encoding="UTF-8"?>
<svg width="88px" height="88px" viewBox="0 0 88 88" version="1.1" xmlns="http://www.w3.org/2000/svg" xmlns:xlink="http://www.w3.org/1999/xlink">
    <title>aelf</title>
    <g id="My" stroke="none" stroke-width="1" fill="none" fill-rule="evenodd">
        <g id="Unlock" transform="translate(-136.000000, -144.000000)">
            <g id="aelf" transform="translate(136.000000, 144.000000)">
                <rect id="Rectangle" x="0" y="0" width="88" height="88"></rect>
                <path d="M39.7791548,16.0063477 C28.0050817,21.1711408 20.6002053,33.8028781 24.911096,46.3556199 C27.5179435,53.9466997 32.7711362,59.3560023 40.5615852,62.1208405 C54.1845264,66.9564862 68.4055754,56.3240844 66.8106211,42.5036548 C66.1335178,36.6297841 63.1505019,32.157141 57.0923086,30.3063921 C52.5858104,28.9296155 48.2730389,29.5728636 44.7539828,32.8474102 C41.7672052,35.6235335 40.6349381,39.0429049 41.8311538,43.0171247 C42.4913295,45.2026636 44.0768796,46.5625126 46.2342057,47.2114032 C48.128214,47.7794176 49.5933902,46.9574895 50.7218956,45.3851053 C50.4943137,45.0051751 50.2949444,44.589509 50.0184606,44.2321489 C48.545761,42.3287364 49.7400959,39.5601365 51.0134262,38.4071801 C52.7438011,36.8404385 55.5462562,36.6974944 57.3876009,37.9952757 C60.3743785,40.0961766 61.7323467,45.6841592 60.1091798,49.1900493 C57.3932434,55.0545158 50.4096758,58.4682447 44.0016459,56.8074609 C33.8845949,54.1855666 28.896601,44.1964129 32.1617433,34.5401683 C36.5008466,21.7090618 51.0848982,16.0966282 63.5135044,22.2507443 C73.5609643,27.2236915 77.2906746,35.9075407 76.8900552,46.2446502 C76.2336412,63.2643927 59.0596697,75.8904874 41.8386772,72.6084175 C25.1367971,69.4260322 12.7345226,53.4332297 13.6241611,38.3093763 C13.9514276,32.7251554 15.1946644,27.4964137 18.051664,22.6983848 C25.4847529,10.2208767 37.0632184,4.34888685 51.5457045,3.39906146 C55.358172,3.14890943 59.2026138,3.36144462 62.8345203,3.36332546 C62.635151,3.27492587 62.1799872,3.05110563 61.7060149,2.87430645 C54.6340477,0.226080418 47.3250943,-0.618417798 39.8355801,0.449900658 C35.1917803,1.02167673 30.9053406,2.27619858 27.0082352,4.07052218 C26.9367632,4.08180724 26.8521253,4.10625819 26.748679,4.14951756 C24.9957339,4.89621198 24.7023225,3.18088375 24.0797637,2.66177126 C23.4741325,2.15770551 23.5531278,2.78402602 23.5531278,2.78402602 C24.0816445,5.29871224 22.7575315,6.31248627 22.5788515,6.43662186 C21.474797,7.11936763 20.4158828,7.85665784 19.3927046,8.63156488 C19.3626111,8.64473078 19.340041,8.64473078 19.3080666,8.65977752 C16.8911842,9.76195114 15.8868144,7.89991721 14.7752366,7.33378366 C13.5997101,6.7356758 14.0435889,7.7174755 14.0435889,7.7174755 C15.4993609,10.610211 14.2429582,13.0853996 14.0078529,13.5029466 C12.9771513,14.6145244 12.0122792,15.7825275 11.1094748,16.9956708 C11.0154327,17.0558578 10.9232714,17.112283 10.8160634,17.208206 C8.44244039,19.3542471 6.5954532,17.6558465 5.12839616,17.3361033 C3.51087174,16.9862666 4.42684197,18.0451809 4.42684197,18.0451809 C7.41926215,21.109073 6.47319844,24.7936432 6.47319844,24.7936432 L6.48072181,24.7974049 C2.63628005,33.1050856 1.25574176,42.7199517 2.85257692,52.3724346 C8.10200792,84.1003642 47.1276059,99.0850352 72.7089427,78.6459214 C81.0166233,72.0084287 86.7795243,59.2224624 87.3870364,48.6446051 C87.8196301,41.1325207 85.4967898,34.3144672 81.2141118,28.1415426 C72.1277624,15.0433565 53.9663487,9.7826404 39.7791548,16.0063477" id="Shape" fill="#5B8EF4"></path>
            </g>
        </g>
    </g>
</svg>