<svg width="108" height="24" viewBox="0 0 108 24" fill="none" xmlns="http://www.w3.org/2000/svg">
<g clip-path="url(#clip0_7351_2379)">
<path d="M47.5879 7.20053C50.2367 7.20053 52.3879 9.35181 52.3879 12.0005C52.3879 14.6493 50.2367 16.8005 47.5879 16.8005C44.9392 16.8005 42.7879 14.6493 42.7879 12.0005C42.7879 9.35181 44.9392 7.20053 47.5879 7.20053ZM47.5879 5.45508C43.9748 5.45508 41.0425 8.38744 41.0425 12.0005C41.0425 15.6136 43.9748 18.546 47.5879 18.546C51.201 18.546 54.1334 15.6136 54.1334 12.0005C54.1334 8.38744 51.201 5.45508 47.5879 5.45508Z" fill="#2F3239"/>
<path d="M95.1558 7.20053C95.6358 7.20053 96.0285 6.80781 96.0285 6.32781V5.45508H87.3013V18.546H95.1558C95.6358 18.546 96.0285 18.1533 96.0285 17.6733V16.8005H89.0467V12.8733H95.1558V11.1278H89.0467V7.20053H95.1558Z" fill="#2F3239"/>
<path d="M71.5879 5.45508H66.3516V7.20053H69.8425V18.546H70.7152C71.1952 18.546 71.5879 18.1533 71.5879 17.6733V7.20053H74.2061C74.6861 7.20053 75.0788 6.80781 75.0788 6.32781V5.45508H71.5879Z" fill="#2F3239"/>
<path d="M34.9335 5.45508H30.5698V18.546H31.4426C31.9226 18.546 32.3153 18.1533 32.3153 17.6733V14.1824H34.9335C37.3422 14.1824 39.2971 12.2274 39.2971 9.81871C39.2971 7.40999 37.3422 5.45508 34.9335 5.45508ZM34.9335 12.4369H32.3153V7.20053H34.9335C36.3778 7.20053 37.5516 8.37435 37.5516 9.81871C37.5516 11.2631 36.3778 12.4369 34.9335 12.4369Z" fill="#2F3239"/>
<path d="M64.6062 9.81871C64.6062 7.40999 62.6513 5.45508 60.2425 5.45508H55.8789V18.546H56.7516C57.2316 18.546 57.6244 18.1533 57.6244 17.6733V14.1824H60.0724L62.5902 18.546H64.6062L61.8964 13.8551C63.4847 13.2049 64.6062 11.6427 64.6062 9.81871ZM57.6244 7.20053H60.2425C61.6869 7.20053 62.8607 8.37435 62.8607 9.81871C62.8607 11.2631 61.6869 12.4369 60.2425 12.4369H57.6244V7.20053Z" fill="#2F3239"/>
<path d="M83.5401 18.546H85.5561L81.1139 10.8573L84.2339 5.45508H82.2179L78.5699 11.7693V5.45508H76.8245V18.546H77.6972C78.1772 18.546 78.5699 18.1533 78.5699 17.6733V15.2602L80.1059 12.5984L83.5401 18.5416V18.546Z" fill="#2F3239"/>
<path d="M106.502 5.45508H104.486L102.138 9.52199L99.7904 5.45508H97.7744L101.265 11.5031V18.546H102.138C102.618 18.546 103.011 18.1533 103.011 17.6733V11.5031L106.502 5.45508Z" fill="#2F3239"/>
<path d="M10.2501 4.36902C7.03849 5.77847 5.01813 9.22574 6.19195 12.6468C6.90322 14.7152 8.33449 16.1945 10.4639 16.9494C14.1818 18.2672 18.0567 15.3697 17.6247 11.5996C17.437 9.99811 16.6254 8.78065 14.9759 8.27011C13.7498 7.89483 12.5716 8.06938 11.6072 8.96393C10.7956 9.71883 10.4814 10.6527 10.8087 11.7392C10.9876 12.337 11.4196 12.7079 12.0087 12.8825C12.5236 13.0396 12.925 12.8127 13.2349 12.385C13.1738 12.2803 13.117 12.1668 13.0429 12.0708C12.6414 11.5516 12.9643 10.7967 13.3134 10.4825C13.7847 10.0548 14.5483 10.0156 15.0545 10.369C15.8661 10.9407 16.2414 12.4636 15.7963 13.4236C15.0545 15.025 13.1476 15.9545 11.4021 15.5007C8.64431 14.785 7.28286 12.0577 8.17304 9.42647C9.35558 5.92683 13.3352 4.3952 16.7258 6.0752C19.4661 7.43229 20.4829 9.79738 20.3781 12.6207C20.1992 17.2636 15.517 20.7065 10.8174 19.8119C6.26177 18.9436 2.87558 14.5799 3.11995 10.4563C3.20722 8.93338 3.55195 7.50647 4.32867 6.19738C6.34904 2.78938 9.50831 1.18792 13.4574 0.926107C14.4959 0.856288 15.5476 0.913016 16.5381 0.913016C16.4858 0.891198 16.3592 0.825743 16.2327 0.782107C14.2996 0.0621067 12.3054 -0.169166 10.2632 0.123198C8.99776 0.280289 7.82395 0.625016 6.76358 1.10938C6.74613 1.10938 6.71995 1.11811 6.69376 1.1312C6.21813 1.33629 6.13522 0.869379 5.96504 0.725379C5.79922 0.590107 5.82104 0.760289 5.82104 0.760289C5.96504 1.44538 5.60285 1.72029 5.55485 1.7552C5.25376 1.94283 4.96576 2.14356 4.68649 2.35738C4.67776 2.35738 4.66904 2.35738 4.66467 2.36611C4.00576 2.6672 3.73086 2.15665 3.42976 2.00393C3.10686 1.84247 3.22904 2.10865 3.22904 2.10865C3.62613 2.89847 3.2814 3.57483 3.21595 3.68392C2.93667 3.98502 2.67486 4.30356 2.42613 4.6352C2.39995 4.65265 2.37376 4.66574 2.34322 4.69193C1.6974 5.27665 1.19122 4.81411 0.794128 4.72683C0.353401 4.63083 0.602128 4.91883 0.602128 4.91883C1.41813 5.75665 1.16067 6.76029 1.16067 6.76029C0.117765 9.02938 -0.257508 11.6519 0.178855 14.2832C1.61449 22.9363 12.2574 27.025 19.2305 21.4483C21.4952 19.6374 23.0661 16.1508 23.2319 13.2665C23.3498 11.2156 22.717 9.35665 21.5476 7.67665C19.069 4.10283 14.1163 2.67156 10.2458 4.36902H10.2501Z" fill="#5B8EF4"/>
</g>
<defs>
<clipPath id="clip0_7351_2379">
<rect width="108" height="24" fill="white"/>
</clipPath>
</defs>
</svg>
