<svg xmlns="http://www.w3.org/2000/svg" width="16" height="16" viewBox="0 0 16 16" fill="none">
  <path d="M7.96683 12C8.20016 12 8.39739 11.9195 8.5585 11.7584C8.71961 11.5973 8.80016 11.4 8.80016 11.1667C8.80016 10.9334 8.71961 10.7362 8.5585 10.575C8.39739 10.4139 8.20016 10.3334 7.96683 10.3334C7.7335 10.3334 7.53627 10.4139 7.37516 10.575C7.21405 10.7362 7.1335 10.9334 7.1335 11.1667C7.1335 11.4 7.21405 11.5973 7.37516 11.7584C7.53627 11.9195 7.7335 12 7.96683 12ZM8.00016 14.6667C7.07794 14.6667 6.21127 14.4917 5.40016 14.1417C4.58905 13.7917 3.8835 13.3167 3.2835 12.7167C2.6835 12.1167 2.2085 11.4112 1.8585 10.6C1.5085 9.78893 1.3335 8.92226 1.3335 8.00004C1.3335 7.07782 1.5085 6.21115 1.8585 5.40004C2.2085 4.58893 2.6835 3.88337 3.2835 3.28337C3.8835 2.68337 4.58905 2.20837 5.40016 1.85837C6.21127 1.50837 7.07794 1.33337 8.00016 1.33337C8.92239 1.33337 9.78905 1.50837 10.6002 1.85837C11.4113 2.20837 12.1168 2.68337 12.7168 3.28337C13.3168 3.88337 13.7918 4.58893 14.1418 5.40004C14.4918 6.21115 14.6668 7.07782 14.6668 8.00004C14.6668 8.92226 14.4918 9.78893 14.1418 10.6C13.7918 11.4112 13.3168 12.1167 12.7168 12.7167C12.1168 13.3167 11.4113 13.7917 10.6002 14.1417C9.78905 14.4917 8.92239 14.6667 8.00016 14.6667ZM8.06683 5.13337C8.34461 5.13337 8.58627 5.22226 8.79183 5.40004C8.99739 5.57782 9.10016 5.80004 9.10016 6.06671C9.10016 6.31115 9.02516 6.52782 8.87516 6.71671C8.72516 6.9056 8.55572 7.08337 8.36683 7.25004C8.11127 7.47226 7.88627 7.71671 7.69183 7.98337C7.49739 8.25004 7.40016 8.55004 7.40016 8.88337C7.40016 9.03893 7.4585 9.16949 7.57516 9.27504C7.69183 9.3806 7.82794 9.43337 7.9835 9.43337C8.15016 9.43337 8.29183 9.37782 8.4085 9.26671C8.52516 9.1556 8.60016 9.01671 8.6335 8.85004C8.67794 8.61671 8.77794 8.40837 8.9335 8.22504C9.08905 8.04171 9.25572 7.86671 9.4335 7.70004C9.68905 7.4556 9.9085 7.18893 10.0918 6.90004C10.2752 6.61115 10.3668 6.28893 10.3668 5.93337C10.3668 5.36671 10.1363 4.90282 9.67516 4.54171C9.21405 4.1806 8.67794 4.00004 8.06683 4.00004C7.64461 4.00004 7.24183 4.08893 6.8585 4.26671C6.47516 4.44449 6.1835 4.71671 5.9835 5.08337C5.90572 5.21671 5.88072 5.35837 5.9085 5.50837C5.93627 5.65837 6.01127 5.77226 6.1335 5.85004C6.28905 5.93893 6.45016 5.96671 6.61683 5.93337C6.7835 5.90004 6.92239 5.8056 7.0335 5.65004C7.15572 5.48337 7.3085 5.3556 7.49183 5.26671C7.67516 5.17782 7.86683 5.13337 8.06683 5.13337Z" fill="white" fill-opacity="0.7"/>
</svg>