<svg width="64" height="64" viewBox="0 0 64 64" fill="none" xmlns="http://www.w3.org/2000/svg">
<path id="qrcode-bg" fill-rule="evenodd" clip-rule="evenodd" d="M0 0H59.7333C62.0898 0 64 1.91025 64 4.26667V64L0 0Z" fill="#E3E3E8"/>
<rect opacity="0.01" x="12.5" y="4.5" width="47" height="47" fill="#D8D8D8" stroke="#979797"/>
<path id="qrcode-line" fill-rule="evenodd" clip-rule="evenodd" d="M42.2476 42.2476V41.5619H41.5619L42.2476 42.2476ZM39.5048 39.5048V39.1238H42.2476V36.6857H39.5048V31.5048H42.2476V29.0667H37.0667V37.0667L39.5048 39.5048ZM22.4381 22.4381L20 20V12H34.6285V26.6285H26.6285L24.1904 24.1904H32.1904V14.4381H22.4381V22.4381ZM34.6285 34.6285V29.0666H29.0666L31.5047 31.5047H32.1904V32.1904L34.6285 34.6285ZM29.7524 21.7523H24.8762V16.8761H29.7524V21.7523ZM51.9999 29.0666H49.5618V31.5047H47.1237V29.0666H44.6856V31.5047H47.1237V34.2475H49.5618V36.6856H51.9999V29.0666ZM47.1238 34.2476H42.2476V34.2476V36.6857H44.6857V41.5619H47.1238V44H52V41.5619H49.5619V39.1238H47.1238V34.2476ZM37.0666 26.6285V12H51.9999V26.6285H37.0666ZM39.5047 24.1904H49.5618V14.4381H39.5047V24.1904ZM42.2476 16.8762H47.1237V21.7524H42.2476V16.8762Z" fill="#25272A"/>
</svg>
