<svg width="20" height="20" viewBox="0 0 20 20" fill="none" xmlns="http://www.w3.org/2000/svg">
<path fill-rule="evenodd" clip-rule="evenodd" d="M3.82184 5.41832C3.82184 6.03196 4.3193 6.52942 4.93294 6.52942H5.41954C6.03319 6.52942 6.53065 6.03196 6.53065 5.41832V4.93186C6.53065 4.31822 6.03319 3.82076 5.41954 3.82076H4.93294C4.3193 3.82076 3.82184 4.31822 3.82184 4.93186V5.41832ZM16.1795 13.9142C16.1795 13.6687 15.9805 13.4697 15.7351 13.4697H13.9152C13.6697 13.4697 13.4707 13.6687 13.4707 13.9142V14.8241L12.3915 14.8241C12.146 14.8241 11.947 14.6251 11.947 14.3797V12.3906C11.947 12.1452 12.146 11.9462 12.3915 11.9462H13.0263C13.2717 11.9462 13.4707 11.7472 13.4707 11.5017V11.0363C13.4707 10.7908 13.2717 10.5918 13.0263 10.5918H11.0371C10.7916 10.5918 10.5926 10.7908 10.5926 11.0363V18.4427C10.5926 18.6881 10.7916 18.8871 11.0371 18.8871H13.0263C13.2717 18.8871 13.4707 18.6881 13.4707 18.4427V17.9772C13.4707 17.7318 13.2717 17.5328 13.0263 17.5328H12.3915C12.146 17.5328 11.947 17.3338 11.947 17.0883V16.6229C11.947 16.3774 12.146 16.1784 12.3915 16.1784H13.0263C13.2717 16.1784 13.4707 15.9794 13.4707 15.734V14.8241H14.3807C14.6261 14.8241 14.8251 15.0231 14.8251 15.2685V17.0883C14.8251 17.3338 15.0241 17.5328 15.2696 17.5328H15.7351C15.9806 17.5328 16.1795 17.7317 16.1795 17.9772V18.4427C16.1795 18.6881 16.3785 18.8871 16.624 18.8871H18.4439C18.6894 18.8871 18.8884 18.6881 18.8884 18.4427V17.9772C18.8884 17.7317 18.6894 17.5328 18.4439 17.5328H17.9784C17.7329 17.5328 17.5339 17.3338 17.5339 17.0883V16.6229C17.5339 16.3774 17.335 16.1784 17.0895 16.1784H16.624C16.3785 16.1784 16.1795 15.9794 16.1795 15.734V13.9142ZM18.89 11.0365C18.89 10.7911 18.691 10.5921 18.4456 10.5921H17.9801C17.7346 10.5921 17.5356 10.7911 17.5356 11.0365V11.502C17.5356 11.7475 17.3366 11.9464 17.0912 11.9464H16.1812V11.0365C16.1812 10.7911 15.9822 10.5921 15.7368 10.5921H15.2712C15.0258 10.5921 14.8268 10.7911 14.8268 11.0365V11.502C14.8268 11.7475 15.0258 11.9464 15.2712 11.9464H16.1812V13.0256C16.1812 13.2711 16.3802 13.47 16.6256 13.47H17.0912C17.3366 13.47 17.5356 13.669 17.5356 13.9145V14.3799C17.5356 14.6254 17.7346 14.8244 17.9801 14.8244H18.4456C18.691 14.8244 18.89 14.6254 18.89 14.3799V11.0365ZM1.1123 17.7764C1.1123 18.3901 1.60976 18.8875 2.22341 18.8875H8.12761C8.74126 18.8875 9.23872 18.3901 9.23872 17.7764V11.7034C9.23872 11.0897 8.74126 10.5922 8.12761 10.5922H2.22341C1.60976 10.5922 1.1123 11.0897 1.1123 11.7034V17.7764ZM2.46524 12.7248C2.46524 12.2952 2.81346 11.947 3.24301 11.947H7.10507C7.53462 11.947 7.88284 12.2952 7.88284 12.7248V16.7559C7.88284 17.1854 7.53462 17.5336 7.10507 17.5336H3.24301C2.81346 17.5336 2.46524 17.1854 2.46524 16.7559V12.7248ZM3.82184 15.0683C3.82184 15.6819 4.3193 16.1794 4.93294 16.1794H5.41954C6.03319 16.1794 6.53065 15.6819 6.53065 15.0683V14.5818C6.53065 13.9682 6.03319 13.4707 5.41954 13.4707H4.93294C4.3193 13.4707 3.82184 13.9682 3.82184 14.5818V15.0683ZM11.7037 1.11245C11.0901 1.11245 10.5926 1.60991 10.5926 2.22355V8.12731C10.5926 8.74096 11.0901 9.23842 11.7037 9.23842H17.7772C18.3909 9.23842 18.8883 8.74096 18.8883 8.12731V2.22355C18.8883 1.60991 18.3909 1.11245 17.7772 1.11245H11.7037ZM1.11271 8.12681C1.11271 8.74045 1.61017 9.23791 2.22382 9.23791H8.12802C8.74166 9.23791 9.23912 8.74045 9.23912 8.12681V2.22304C9.23912 1.6094 8.74166 1.11194 8.12802 1.11194H2.22382C1.61017 1.11194 1.11271 1.6094 1.11271 2.22304V8.12681ZM2.46524 3.24397C2.46524 2.81442 2.81346 2.4662 3.24301 2.4662H7.10507C7.53462 2.4662 7.88284 2.81442 7.88284 3.24397V7.10573C7.88284 7.53528 7.53462 7.8835 7.10507 7.8835H3.24301C2.81346 7.8835 2.46524 7.53528 2.46524 7.10573V3.24397ZM16.1802 4.93186C16.1802 4.31822 15.6828 3.82076 15.0691 3.82076H14.5825C13.9689 3.82076 13.4714 4.31822 13.4714 4.93186V5.41832C13.4714 6.03196 13.9689 6.52942 14.5825 6.52942H15.0691C15.6828 6.52942 16.1802 6.03196 16.1802 5.41832V4.93186ZM12.0941 3.24397C12.0941 2.81442 12.4423 2.4662 12.8718 2.4662H16.7339C17.1634 2.4662 17.5117 2.81442 17.5117 3.24397V7.10573C17.5117 7.53528 17.1634 7.8835 16.7339 7.8835H12.8718C12.4423 7.8835 12.0941 7.53528 12.0941 7.10573V3.24397Z" fill="#5B8EF4"/>
</svg>
