<svg width="18" height="18" viewBox="0 0 18 18" fill="none" xmlns="http://www.w3.org/2000/svg">
<path fill-rule="evenodd" clip-rule="evenodd" d="M3.44069 4.87688C3.44069 5.42917 3.8884 5.87688 4.44069 5.87688H4.87862C5.4309 5.87688 5.87862 5.42917 5.87862 4.87688V4.43906C5.87862 3.88678 5.4309 3.43906 4.87862 3.43906H4.44069C3.8884 3.43906 3.44069 3.88678 3.44069 4.43906V4.87688ZM14.5624 12.5231C14.5624 12.3022 14.3833 12.1231 14.1624 12.1231H12.5244C12.3035 12.1231 12.1244 12.3022 12.1244 12.5231V13.342L11.1531 13.3421C10.9322 13.3421 10.7531 13.163 10.7531 12.9421V11.1519C10.7531 10.931 10.9322 10.7519 11.1531 10.7519H11.7244C11.9453 10.7519 12.1244 10.5728 12.1244 10.3519V9.93298C12.1244 9.71206 11.9453 9.53298 11.7244 9.53298H9.93414C9.71323 9.53298 9.53414 9.71206 9.53414 9.93298V16.5988C9.53414 16.8197 9.71323 16.9988 9.93414 16.9988H11.7244C11.9453 16.9988 12.1244 16.8197 12.1244 16.5988V16.1799C12.1244 15.959 11.9453 15.7799 11.7244 15.7799H11.1531C10.9322 15.7799 10.7531 15.6008 10.7531 15.3799V14.961C10.7531 14.74 10.9322 14.561 11.1531 14.561H11.7244C11.9453 14.561 12.1244 14.3819 12.1244 14.161V13.342H12.9434C13.1643 13.342 13.3434 13.5211 13.3434 13.742V15.3799C13.3434 15.6008 13.5225 15.7799 13.7434 15.7799H14.1624C14.3833 15.7799 14.5624 15.9589 14.5624 16.1799V16.5988C14.5624 16.8197 14.7415 16.9988 14.9624 16.9988H16.6003C16.8212 16.9988 17.0003 16.8197 17.0003 16.5988V16.1799C17.0003 15.9589 16.8212 15.7799 16.6003 15.7799H16.1813C15.9604 15.7799 15.7813 15.6008 15.7813 15.3799V14.9609C15.7813 14.74 15.6023 14.5609 15.3813 14.5609H14.9624C14.7414 14.5609 14.5624 14.3818 14.5624 14.1609V12.5231ZM17.0019 9.93298C17.0019 9.71206 16.8228 9.53298 16.6019 9.53298H16.1829C15.962 9.53298 15.7829 9.71206 15.7829 9.93298V10.3519C15.7829 10.5728 15.6039 10.7519 15.3829 10.7519H14.564V9.93298C14.564 9.71206 14.3849 9.53298 14.164 9.53298H13.745C13.5241 9.53298 13.345 9.71206 13.345 9.93298V10.3519C13.345 10.5728 13.5241 10.7519 13.745 10.7519H14.564V11.7232C14.564 11.9441 14.7431 12.1232 14.964 12.1232H15.3829C15.6039 12.1232 15.7829 12.3022 15.7829 12.5232V12.9421C15.7829 13.163 15.962 13.3421 16.1829 13.3421H16.6019C16.8228 13.3421 17.0019 13.163 17.0019 12.9421V9.93298ZM1.00192 15.9992C1.00192 16.5515 1.44963 16.9992 2.00192 16.9992H7.31569C7.86797 16.9992 8.31569 16.5515 8.31569 15.9992V10.5334C8.31569 9.98107 7.86797 9.53336 7.31569 9.53336H2.00192C1.44963 9.53336 1.00192 9.98107 1.00192 10.5334V15.9992ZM2.21953 11.4526C2.21953 11.066 2.53293 10.7526 2.91953 10.7526H6.39537C6.78197 10.7526 7.09537 11.066 7.09537 11.4526V15.0806C7.09537 15.4672 6.78197 15.7806 6.39537 15.7806H2.91953C2.53293 15.7806 2.21953 15.4672 2.21953 15.0806V11.4526ZM3.44069 13.5616C3.44069 14.1139 3.8884 14.5616 4.44069 14.5616H4.87862C5.4309 14.5616 5.87862 14.1139 5.87862 13.5616V13.1238C5.87862 12.5715 5.4309 12.1238 4.87862 12.1238H4.44069C3.8884 12.1238 3.44069 12.5715 3.44069 13.1238V13.5616ZM10.5337 1.0013C9.98142 1.0013 9.5337 1.44902 9.5337 2.0013V7.31474C9.5337 7.86702 9.98142 8.31474 10.5337 8.31474H15.9999C16.5521 8.31474 16.9999 7.86702 16.9999 7.31474V2.0013C16.9999 1.44902 16.5521 1.0013 15.9999 1.0013H10.5337ZM1.0022 7.31441C1.0022 7.8667 1.44991 8.31441 2.0022 8.31441H7.31597C7.86825 8.31441 8.31597 7.8667 8.31597 7.31441V2.00098C8.31597 1.44869 7.86825 1.00098 7.31597 1.00098H2.0022C1.44991 1.00098 1.0022 1.44869 1.0022 2.00098V7.31441ZM2.21953 2.91983C2.21953 2.53323 2.53293 2.21983 2.91953 2.21983H6.39537C6.78197 2.21983 7.09537 2.53323 7.09537 2.91983V6.39545C7.09537 6.78205 6.78197 7.09545 6.39537 7.09545H2.91953C2.53293 7.09545 2.21953 6.78205 2.21953 6.39545V2.91983ZM14.5626 4.43906C14.5626 3.88678 14.1149 3.43906 13.5626 3.43906H13.1247C12.5724 3.43906 12.1247 3.88678 12.1247 4.43906V4.87688C12.1247 5.42917 12.5724 5.87688 13.1247 5.87688H13.5626C14.1149 5.87688 14.5626 5.42917 14.5626 4.87688V4.43906ZM10.8855 2.91983C10.8855 2.53323 11.199 2.21983 11.5855 2.21983H15.0614C15.448 2.21983 15.7614 2.53323 15.7614 2.91983V6.39545C15.7614 6.78205 15.448 7.09545 15.0614 7.09545H11.5855C11.199 7.09545 10.8855 6.78205 10.8855 6.39545V2.91983Z" fill="black"/>
</svg>
