<svg width="24" height="24" viewBox="0 0 24 24" fill="none" xmlns="http://www.w3.org/2000/svg">
<rect opacity="0.01" x="0.25" y="0.25" width="23.5" height="23.5" fill="#D8D8D8" stroke="#979797" stroke-width="0.5"/>
<path fill-rule="evenodd" clip-rule="evenodd" d="M5.74285 8.48568H8.48571V5.74283H5.74285V8.48568ZM19.6285 12.6H21V16.8857H19.6285V15.5142H18.2571V13.9714H16.8856V12.6H18.2571V13.9714H19.6285V12.6ZM15.5143 15.5143H18.2571V18.2571H19.6286V19.6285H21V21H18.2571V19.6285H16.8857V16.8857H15.5143V18.2571H13.9714V19.6286H15.5143V21H12.6V12.6H15.5143V13.9715H13.9714V16.8857H15.5143V15.5143V15.5143ZM3 20.9999H11.2285V12.6H3V20.9999ZM4.37144 13.9714H9.85712V19.6285H4.37144V13.9714ZM5.74285 18.2571H8.48571V15.5142H5.74285V18.2571ZM12.6 3V11.2285H21V3H12.6ZM19.6285 9.85712H13.9714V4.37144H19.6285V9.85712ZM3 11.2285H11.2285V3H3V11.2285ZM4.37144 4.37144H9.85712V9.85712H4.37144V4.37144ZM18.2571 5.74285H15.5143V8.4857H18.2571V5.74285Z" fill="#5B8EF4"/>
</svg>
