<svg width="20" height="20" viewBox="0 0 20 20" fill="none" xmlns="http://www.w3.org/2000/svg">
<rect width="20" height="20" rx="10" fill="#0996EE"/>
<path d="M9.42708 12.3919V5.98954C9.42708 5.82722 9.48199 5.69115 9.5918 5.58134C9.70161 5.47153 9.83767 5.41663 10 5.41663C10.1623 5.41663 10.2984 5.47153 10.4082 5.58134C10.518 5.69115 10.5729 5.82722 10.5729 5.98954V12.3919L13.3802 9.58459C13.4948 9.47001 13.6285 9.41511 13.7812 9.41988C13.934 9.42466 14.0677 9.48433 14.1823 9.59892C14.2873 9.7135 14.3422 9.84718 14.347 9.99996C14.3518 10.1527 14.2969 10.2864 14.1823 10.401L10.401 14.1823C10.3438 14.2395 10.2817 14.2801 10.2148 14.304C10.148 14.3279 10.0764 14.3398 10 14.3398C9.92361 14.3398 9.852 14.3279 9.78516 14.304C9.71832 14.2801 9.65625 14.2395 9.59896 14.1823L5.81771 10.401C5.71267 10.296 5.66016 10.1647 5.66016 10.0071C5.66016 9.84957 5.71267 9.7135 5.81771 9.59892C5.93229 9.48433 6.06836 9.42704 6.22591 9.42704C6.38346 9.42704 6.51953 9.48433 6.63411 9.59892L9.42708 12.3919Z" fill="#DFF0FF"/>
</svg>
