<svg width="20" height="20" viewBox="0 0 20 20" fill="none" xmlns="http://www.w3.org/2000/svg">
<rect width="20" height="20" rx="10" fill="#0996EE"/>
<path d="M15.041 10.53L6.2181 14.2539C6.02713 14.3303 5.8457 14.3136 5.67383 14.2038C5.50195 14.094 5.41602 13.934 5.41602 13.724V6.27605C5.41602 6.06598 5.50195 5.90604 5.67383 5.79624C5.8457 5.68643 6.02713 5.66972 6.2181 5.74611L15.041 9.47006C15.2797 9.5751 15.3991 9.75175 15.3991 10C15.3991 10.2483 15.2797 10.4249 15.041 10.53ZM6.56185 12.8646L13.3509 10L6.56185 7.13543V9.14064L9.99935 10L6.56185 10.8594V12.8646Z" fill="#DFF0FF"/>
</svg>
