<svg width="16" height="16" viewBox="0 0 16 16" fill="none" xmlns="http://www.w3.org/2000/svg">
<path d="M5.99995 8.66621C5.81106 8.66621 5.65273 8.60232 5.52495 8.47454C5.39717 8.34677 5.33328 8.18843 5.33328 7.99954V3.88288L4.08328 5.13288C3.96106 5.2551 3.80828 5.31621 3.62495 5.31621C3.44162 5.31621 3.28328 5.2551 3.14995 5.13288C3.01662 4.99954 2.94995 4.84121 2.94995 4.65788C2.94995 4.47454 3.01662 4.31621 3.14995 4.18288L5.53328 1.79954C5.59995 1.73288 5.67217 1.68566 5.74995 1.65788C5.82773 1.6301 5.91106 1.61621 5.99995 1.61621C6.08884 1.61621 6.17217 1.6301 6.24995 1.65788C6.32773 1.68566 6.39995 1.73288 6.46662 1.79954L8.86662 4.19954C8.99995 4.33288 9.06384 4.48843 9.05828 4.66621C9.05273 4.84399 8.98328 4.99954 8.84995 5.13288C8.71662 5.2551 8.56106 5.31899 8.38329 5.32454C8.20551 5.3301 8.04995 5.26621 7.91662 5.13288L6.66662 3.88288V7.99954C6.66662 8.18843 6.60273 8.34677 6.47495 8.47454C6.34717 8.60232 6.18884 8.66621 5.99995 8.66621ZM9.99995 14.3829C9.91106 14.3829 9.82773 14.369 9.74995 14.3412C9.67217 14.3134 9.59995 14.2662 9.53328 14.1995L7.13328 11.7995C6.99995 11.6662 6.93606 11.5107 6.94162 11.3329C6.94717 11.1551 7.01662 10.9995 7.14995 10.8662C7.28328 10.744 7.43884 10.6801 7.61662 10.6745C7.7944 10.669 7.94995 10.7329 8.08328 10.8662L9.33328 12.1162V7.99954C9.33328 7.81066 9.39717 7.65232 9.52495 7.52454C9.65273 7.39677 9.81106 7.33288 9.99995 7.33288C10.1888 7.33288 10.3472 7.39677 10.475 7.52454C10.6027 7.65232 10.6666 7.81066 10.6666 7.99954V12.1162L11.9166 10.8662C12.0388 10.744 12.1916 10.6829 12.375 10.6829C12.5583 10.6829 12.7166 10.744 12.85 10.8662C12.9833 10.9995 13.05 11.1579 13.05 11.3412C13.05 11.5245 12.9833 11.6829 12.85 11.8162L10.4666 14.1995C10.4 14.2662 10.3277 14.3134 10.25 14.3412C10.1722 14.369 10.0888 14.3829 9.99995 14.3829Z" fill="white" fill-opacity="0.7"/>
</svg>
