<svg width="16" height="16" viewBox="0 0 16 16" fill="none" xmlns="http://www.w3.org/2000/svg">
<g id="telegram-mono" clip-path="url(#clip0_2179_4120)">
<path id="Vector" fill-rule="evenodd" clip-rule="evenodd" d="M1.09992 7.70819C5.39488 5.83695 8.25885 4.60331 9.69185 4.00728C13.7834 2.30549 14.6335 2.00987 15.1877 2.0001C15.3095 1.99796 15.5821 2.02816 15.7586 2.17139C15.9076 2.29234 15.9486 2.45571 15.9683 2.57038C15.9879 2.68505 16.0123 2.94626 15.9929 3.15037C15.7712 5.48 14.8118 11.1334 14.3237 13.7426C14.1172 14.8467 13.7105 15.2169 13.3169 15.2531C12.4613 15.3318 11.8116 14.6877 10.9829 14.1445C9.68624 13.2945 8.9537 12.7653 7.69503 11.9359C6.24043 10.9773 7.18339 10.4505 8.01236 9.58949C8.22931 9.36416 11.999 5.93536 12.0719 5.62432C12.0811 5.58541 12.0895 5.44041 12.0034 5.36384C11.9172 5.28727 11.7901 5.31345 11.6983 5.33428C11.5683 5.3638 9.49681 6.73297 5.48389 9.44179C4.89591 9.84555 4.36333 10.0423 3.88616 10.032C3.36012 10.0206 2.34822 9.73453 1.59598 9.49001C0.673328 9.19009 -0.0599784 9.03152 0.00387615 8.52217C0.0371355 8.25686 0.402482 7.98554 1.09992 7.70819Z" fill="#25272A"/>
</g>
<defs>
<clipPath id="clip0_2179_4120">
<rect width="16" height="16" fill="white"/>
</clipPath>
</defs>
</svg>
