<svg width="20" height="20" viewBox="0 0 20 20" fill="none" xmlns="http://www.w3.org/2000/svg">
<g clip-path="url(#clip0_10937_6517)">
<path d="M20 10C20 15.5228 15.5228 20 10 20C4.47715 20 0 15.5228 0 10C0 4.47715 4.47715 0 10 0C15.5228 0 20 4.47715 20 10Z" fill="#4DA2E2"/>
<path d="M10.3586 7.38246C9.38597 7.78702 7.44204 8.62435 4.52684 9.89446C4.05346 10.0827 3.80548 10.2669 3.7829 10.4469C3.74475 10.7513 4.12586 10.8711 4.64482 11.0343C4.71541 11.0565 4.78856 11.0795 4.86355 11.1039C5.37413 11.2698 6.06095 11.464 6.418 11.4717C6.74188 11.4787 7.10337 11.3452 7.50247 11.0711C10.2262 9.23252 11.6322 8.30319 11.7205 8.28316C11.7828 8.26903 11.8691 8.25125 11.9276 8.30323C11.986 8.3552 11.9803 8.45362 11.9741 8.48002C11.9363 8.64097 10.4404 10.0318 9.6662 10.7515C9.42485 10.9759 9.25366 11.135 9.21866 11.1714C9.14027 11.2528 9.06037 11.3298 8.98358 11.4039C8.50924 11.8611 8.15352 12.204 9.00328 12.764C9.41163 13.0331 9.7384 13.2556 10.0644 13.4776C10.4204 13.7201 10.7755 13.9619 11.2349 14.2631C11.352 14.3398 11.4638 14.4195 11.5727 14.4971C11.987 14.7925 12.3592 15.0579 12.8191 15.0155C13.0863 14.991 13.3623 14.7397 13.5025 13.9903C13.8338 12.2193 14.485 8.38207 14.6354 6.80083C14.6486 6.6623 14.632 6.485 14.6187 6.40717C14.6054 6.32934 14.5776 6.21844 14.4764 6.13635C14.3566 6.03913 14.1716 6.01863 14.0889 6.02009C13.7128 6.02672 13.1357 6.22737 10.3586 7.38246Z" fill="white"/>
</g>
<defs>
<clipPath id="clip0_10937_6517">
<rect width="20" height="20" fill="white"/>
</clipPath>
</defs>
</svg>
