<svg width="29" height="28" viewBox="0 0 29 28" fill="none" xmlns="http://www.w3.org/2000/svg">
<g id="money_11103991">
<path id="Coin" fill-rule="evenodd" clip-rule="evenodd" d="M15.7916 6.99984C15.7916 6.29984 15.325 5.83317 14.625 5.83317C13.925 5.83317 13.4583 6.29984 13.4583 6.99984C13.4583 7.69984 12.875 8.1665 12.2916 8.39984C10.8916 8.8665 9.95829 10.1498 9.95829 11.6665C9.95829 13.6498 11.475 15.1665 13.4583 15.1665H15.7916C16.4916 15.1665 16.9583 15.6332 16.9583 16.3332C16.9583 17.0332 16.4916 17.4998 15.7916 17.4998H15.325C14.275 17.4998 13.225 17.3832 12.175 17.0332C11.5916 16.7998 10.8916 17.1498 10.6583 17.7332C10.425 18.3165 10.775 19.0165 11.3583 19.2498C11.5916 19.3665 11.9416 19.3665 12.175 19.4832C12.525 19.5998 12.6416 19.5998 12.7583 19.7165C13.1083 19.8332 13.3416 20.1832 13.4583 20.5332V21.1165C13.4583 21.8165 13.925 22.2832 14.625 22.2832C15.325 22.2832 15.7916 21.8165 15.7916 21.1165C15.7916 20.4165 16.375 19.9498 16.9583 19.7165C18.3583 19.2498 19.2916 17.9665 19.2916 16.4498C19.2916 14.4665 17.775 12.9498 15.7916 12.9498H13.4583C12.7583 12.9498 12.2916 12.4832 12.2916 11.7832C12.2916 11.0832 12.7583 10.6165 13.4583 10.6165H13.925C14.975 10.6165 16.025 10.7332 17.075 11.0832C17.6583 11.3165 18.3583 10.9665 18.5916 10.3832C18.825 9.79984 18.475 9.09984 17.8916 8.8665C17.6583 8.74984 17.3083 8.74984 17.075 8.63317C16.725 8.5165 16.6083 8.5165 16.4916 8.39984C16.1416 8.1665 15.9083 7.93317 15.7916 7.58317C15.7916 7.4665 15.7916 7.34984 15.7916 6.99984ZM1.79163 13.9998C1.79163 6.88317 7.50829 1.1665 14.625 1.1665C21.7416 1.1665 27.4583 6.88317 27.4583 13.9998C27.4583 21.1165 21.7416 26.8332 14.625 26.8332C7.50829 26.8332 1.79163 21.1165 1.79163 13.9998Z" fill="#151318"/>
</g>
</svg>
