<svg width="16" height="16" viewBox="0 0 16 16" fill="none" xmlns="http://www.w3.org/2000/svg">
<g id="icon_twitter">
<path id="twitter" fill-rule="evenodd" clip-rule="evenodd" d="M1.00001 12.8885C1.23023 12.9176 1.4653 12.9333 1.70278 12.9333C3.08288 12.9357 4.35272 12.4377 5.35961 11.6017C4.07039 11.5714 2.98352 10.6602 2.60911 9.40976C2.78844 9.44732 2.97383 9.46913 3.16285 9.47034C3.43184 9.47155 3.69114 9.4352 3.93832 9.36493C2.59094 9.06685 1.57556 7.78854 1.57556 6.26547C1.57556 6.25214 1.57556 6.23882 1.57556 6.22549C1.97299 6.4654 2.42615 6.6108 2.90961 6.63261C2.12081 6.06191 1.601 5.09257 1.601 4.00207C1.601 3.42532 1.7464 2.88733 1.99964 2.4269C3.45244 4.3474 5.62255 5.62207 8.06891 5.78081C8.01802 5.55181 7.99258 5.31311 7.99258 5.06956C7.99258 3.34777 9.31088 1.97372 10.9369 2.00038C11.7839 2.01492 12.5497 2.40387 13.0864 3.01455C13.7577 2.88611 14.3878 2.63893 14.9561 2.29361C14.7367 3.01213 14.269 3.6107 13.6608 3.9851C14.2569 3.91846 14.824 3.76094 15.3523 3.52224C14.9573 4.13656 14.4581 4.67333 13.8825 5.10227C13.8886 5.23555 13.891 5.36883 13.891 5.50212C13.891 9.5903 10.9284 14.3049 5.51226 14.3025C3.85106 14.3037 2.30254 13.7827 1 12.8885L1.00001 12.8885Z" fill="#25272A"/>
</g>
</svg>
