<svg width="55" height="48" viewBox="0 0 55 48" fill="none" xmlns="http://www.w3.org/2000/svg">
<path id="Vector" d="M20.2625 4.23297C23.437 -1.41098 31.563 -1.41099 34.7375 4.23296L53.3039 37.2422C55.7947 41.6705 52.5946 47.1419 47.514 47.1419H7.48602C2.40534 47.1419 -0.794718 41.6705 1.69602 37.2422L20.2625 4.23297ZM30.0912 37.9836C30.0912 36.5528 28.9312 35.3929 27.5004 35.3929C26.0696 35.3929 24.9097 36.5528 24.9097 37.9836C24.9097 39.4145 26.0696 40.5744 27.5004 40.5744C28.9312 40.5744 30.0912 39.4145 30.0912 37.9836ZM27.5002 12.79C25.6731 12.79 24.2267 14.3346 24.3464 16.1577L25.2312 29.6295C25.3097 30.8248 26.3022 31.7543 27.5002 31.7543C28.6982 31.7543 29.6907 30.8248 29.7692 29.6295L30.654 16.1577C30.7737 14.3346 29.3272 12.79 27.5002 12.79Z" fill="#F1A282"/>
</svg>
