<svg width="7" height="12" viewBox="0 0 7 12" fill="none" xmlns="http://www.w3.org/2000/svg">
<path id="Vector" d="M4.175 6.00011L0.275 2.10011C0.0916667 1.91678 0 1.68344 0 1.40011C0 1.11678 0.0916667 0.883443 0.275 0.70011C0.458333 0.516777 0.691667 0.42511 0.975 0.42511C1.25833 0.42511 1.49167 0.516777 1.675 0.70011L6.275 5.30011C6.375 5.40011 6.44583 5.50844 6.4875 5.62511C6.52917 5.74178 6.55 5.86678 6.55 6.00011C6.55 6.13344 6.52917 6.25844 6.4875 6.37511C6.44583 6.49178 6.375 6.60011 6.275 6.70011L1.675 11.3001C1.49167 11.4834 1.25833 11.5751 0.975 11.5751C0.691667 11.5751 0.458333 11.4834 0.275 11.3001C0.0916667 11.1168 0 10.8834 0 10.6001C0 10.3168 0.0916667 10.0834 0.275 9.90011L4.175 6.00011Z" fill="white" fill-opacity="0.7"/>
</svg>
