<svg xmlns="http://www.w3.org/2000/svg" width="32" height="32" viewBox="0 0 32 32" fill="none">
  <path d="M16 22.6667C16.3778 22.6667 16.6944 22.539 16.95 22.2834C17.2055 22.0279 17.3333 21.7112 17.3333 21.3334C17.3333 20.9556 17.2055 20.639 16.95 20.3834C16.6944 20.1279 16.3778 20.0001 16 20.0001C15.6222 20.0001 15.3055 20.1279 15.05 20.3834C14.7944 20.639 14.6667 20.9556 14.6667 21.3334C14.6667 21.7112 14.7944 22.0279 15.05 22.2834C15.3055 22.539 15.6222 22.6667 16 22.6667ZM16 17.3334C16.3778 17.3334 16.6944 17.2056 16.95 16.9501C17.2055 16.6945 17.3333 16.3779 17.3333 16.0001V10.6667C17.3333 10.289 17.2055 9.9723 16.95 9.71675C16.6944 9.46119 16.3778 9.33342 16 9.33342C15.6222 9.33342 15.3055 9.46119 15.05 9.71675C14.7944 9.9723 14.6667 10.289 14.6667 10.6667V16.0001C14.6667 16.3779 14.7944 16.6945 15.05 16.9501C15.3055 17.2056 15.6222 17.3334 16 17.3334ZM16 29.3334C14.1555 29.3334 12.4222 28.9834 10.8 28.2834C9.17777 27.5834 7.76666 26.6334 6.56666 25.4334C5.36666 24.2334 4.41666 22.8223 3.71666 21.2001C3.01666 19.5779 2.66666 17.8445 2.66666 16.0001C2.66666 14.1556 3.01666 12.4223 3.71666 10.8001C4.41666 9.17786 5.36666 7.76675 6.56666 6.56675C7.76666 5.36675 9.17777 4.41675 10.8 3.71675C12.4222 3.01675 14.1555 2.66675 16 2.66675C17.8444 2.66675 19.5778 3.01675 21.2 3.71675C22.8222 4.41675 24.2333 5.36675 25.4333 6.56675C26.6333 7.76675 27.5833 9.17786 28.2833 10.8001C28.9833 12.4223 29.3333 14.1556 29.3333 16.0001C29.3333 17.8445 28.9833 19.5779 28.2833 21.2001C27.5833 22.8223 26.6333 24.2334 25.4333 25.4334C24.2333 26.6334 22.8222 27.5834 21.2 28.2834C19.5778 28.9834 17.8444 29.3334 16 29.3334Z" fill="white"/>
</svg>