<svg width="16" height="16" viewBox="0 0 16 16" fill="none" xmlns="http://www.w3.org/2000/svg">
<path fill-rule="evenodd" clip-rule="evenodd" d="M0 8C0 3.58214 3.58214 0 8 0C12.4179 0 16 3.58214 16 8C16 12.4179 12.4179 16 8 16C3.58214 16 0 12.4179 0 8ZM1.35714 8C1.35714 11.6679 4.33214 14.6429 8 14.6429C11.6679 14.6429 14.6429 11.6679 14.6429 8C14.6429 4.33214 11.6679 1.35714 8 1.35714C4.33214 1.35714 1.35714 4.33214 1.35714 8ZM7.14286 11.1429C7.14286 11.6162 7.52661 12 8 12C8.47339 12 8.85714 11.6162 8.85714 11.1429C8.85714 10.6695 8.47339 10.2857 8 10.2857C7.52661 10.2857 7.14286 10.6695 7.14286 11.1429ZM8.57143 9C8.57143 9.07857 8.50714 9.14286 8.42857 9.14286H7.57143C7.49286 9.14286 7.42857 9.07857 7.42857 9V4.14286C7.42857 4.06429 7.49286 4 7.57143 4H8.42857C8.50714 4 8.57143 4.06429 8.57143 4.14286V9Z" fill="#FAAD14"/>
</svg>

