<svg width="32" height="32" viewBox="0 0 32 32" fill="none" xmlns="http://www.w3.org/2000/svg">
<path d="M16 22.6667C16.3777 22.6667 16.6944 22.5389 16.95 22.2833C17.2055 22.0278 17.3333 21.7111 17.3333 21.3333C17.3333 20.9555 17.2055 20.6389 16.95 20.3833C16.6944 20.1278 16.3777 20 16 20C15.6222 20 15.3055 20.1278 15.05 20.3833C14.7944 20.6389 14.6666 20.9555 14.6666 21.3333C14.6666 21.7111 14.7944 22.0278 15.05 22.2833C15.3055 22.5389 15.6222 22.6667 16 22.6667ZM16 17.3333C16.3777 17.3333 16.6944 17.2055 16.95 16.95C17.2055 16.6944 17.3333 16.3778 17.3333 16V10.6667C17.3333 10.2889 17.2055 9.97221 16.95 9.71666C16.6944 9.4611 16.3777 9.33332 16 9.33332C15.6222 9.33332 15.3055 9.4611 15.05 9.71666C14.7944 9.97221 14.6666 10.2889 14.6666 10.6667V16C14.6666 16.3778 14.7944 16.6944 15.05 16.95C15.3055 17.2055 15.6222 17.3333 16 17.3333ZM16 29.3333C14.1555 29.3333 12.4222 28.9833 10.8 28.2833C9.17774 27.5833 7.76663 26.6333 6.56663 25.4333C5.36663 24.2333 4.41663 22.8222 3.71663 21.2C3.01663 19.5778 2.66663 17.8444 2.66663 16C2.66663 14.1555 3.01663 12.4222 3.71663 10.8C4.41663 9.17777 5.36663 7.76666 6.56663 6.56666C7.76663 5.36666 9.17774 4.41666 10.8 3.71666C12.4222 3.01666 14.1555 2.66666 16 2.66666C17.8444 2.66666 19.5777 3.01666 21.2 3.71666C22.8222 4.41666 24.2333 5.36666 25.4333 6.56666C26.6333 7.76666 27.5833 9.17777 28.2833 10.8C28.9833 12.4222 29.3333 14.1555 29.3333 16C29.3333 17.8444 28.9833 19.5778 28.2833 21.2C27.5833 22.8222 26.6333 24.2333 25.4333 25.4333C24.2333 26.6333 22.8222 27.5833 21.2 28.2833C19.5777 28.9833 17.8444 29.3333 16 29.3333Z" fill="#F1A282"/>
</svg>
