<svg width="22" height="22" viewBox="0 0 22 22" fill="none" xmlns="http://www.w3.org/2000/svg">
<g id="error">
<path id="Vector" d="M11 15.5833C11.2597 15.5833 11.4774 15.4955 11.6531 15.3198C11.8288 15.1441 11.9166 14.9264 11.9166 14.6667C11.9166 14.4069 11.8288 14.1892 11.6531 14.0135C11.4774 13.8378 11.2597 13.75 11 13.75C10.7403 13.75 10.5225 13.8378 10.3469 14.0135C10.1712 14.1892 10.0833 14.4069 10.0833 14.6667C10.0833 14.9264 10.1712 15.1441 10.3469 15.3198C10.5225 15.4955 10.7403 15.5833 11 15.5833ZM11 11.9167C11.2597 11.9167 11.4774 11.8288 11.6531 11.6531C11.8288 11.4774 11.9166 11.2597 11.9166 11V7.33334C11.9166 7.07361 11.8288 6.85591 11.6531 6.68021C11.4774 6.50452 11.2597 6.41667 11 6.41667C10.7403 6.41667 10.5225 6.50452 10.3469 6.68021C10.1712 6.85591 10.0833 7.07361 10.0833 7.33334V11C10.0833 11.2597 10.1712 11.4774 10.3469 11.6531C10.5225 11.8288 10.7403 11.9167 11 11.9167ZM11 20.1667C9.73192 20.1667 8.54026 19.926 7.42498 19.4448C6.3097 18.9635 5.33956 18.3104 4.51456 17.4854C3.68956 16.6604 3.03644 15.6903 2.55519 14.575C2.07394 13.4597 1.83331 12.2681 1.83331 11C1.83331 9.73195 2.07394 8.54028 2.55519 7.425C3.03644 6.30972 3.68956 5.33959 4.51456 4.51459C5.33956 3.68959 6.3097 3.03646 7.42498 2.55521C8.54026 2.07396 9.73192 1.83334 11 1.83334C12.268 1.83334 13.4597 2.07396 14.575 2.55521C15.6903 3.03646 16.6604 3.68959 17.4854 4.51459C18.3104 5.33959 18.9635 6.30972 19.4448 7.425C19.926 8.54028 20.1666 9.73195 20.1666 11C20.1666 12.2681 19.926 13.4597 19.4448 14.575C18.9635 15.6903 18.3104 16.6604 17.4854 17.4854C16.6604 18.3104 15.6903 18.9635 14.575 19.4448C13.4597 19.926 12.268 20.1667 11 20.1667Z" fill="#FDD10E"/>
</g>
</svg>
