<svg width="48" height="48" viewBox="0 0 48 48" fill="none" xmlns="http://www.w3.org/2000/svg">
<g id="Icon / Basic">
<path id="Shape" fill-rule="evenodd" clip-rule="evenodd" d="M24 3C12.4031 3 3 12.4031 3 24C3 35.5969 12.4031 45 24 45C35.5969 45 45 35.5969 45 24C45 12.4031 35.5969 3 24 3ZM24.8571 27.4286H22.2857C22.0499 27.4286 21.8571 27.2357 21.8571 27V12.4286C21.8571 12.1929 22.0499 12 22.2857 12H24.8571C25.0928 12 25.2857 12.1929 25.2857 12.4286V27C25.2857 27.2357 25.0928 27.4286 24.8571 27.4286ZM23.5714 35.9999C22.1513 35.9999 21 34.8487 21 33.4285C21 32.0083 22.1513 30.8571 23.5714 30.8571C24.9916 30.8571 26.1429 32.0083 26.1429 33.4285C26.1429 34.8487 24.9916 35.9999 23.5714 35.9999Z" fill="#EA4F45"/>
</g>
</svg>
