<svg xmlns="http://www.w3.org/2000/svg" width="22" height="22" viewBox="0 0 22 22" fill="none">
  <path d="M11 15.5835C11.2598 15.5835 11.4775 15.4956 11.6532 15.32C11.8289 15.1443 11.9167 14.9266 11.9167 14.6668C11.9167 14.4071 11.8289 14.1894 11.6532 14.0137C11.4775 13.838 11.2598 13.7502 11 13.7502C10.7403 13.7502 10.5226 13.838 10.3469 14.0137C10.1712 14.1894 10.0834 14.4071 10.0834 14.6668C10.0834 14.9266 10.1712 15.1443 10.3469 15.32C10.5226 15.4956 10.7403 15.5835 11 15.5835ZM11 11.9168C11.2598 11.9168 11.4775 11.829 11.6532 11.6533C11.8289 11.4776 11.9167 11.2599 11.9167 11.0002V7.3335C11.9167 7.07377 11.8289 6.85607 11.6532 6.68037C11.4775 6.50468 11.2598 6.41683 11 6.41683C10.7403 6.41683 10.5226 6.50468 10.3469 6.68037C10.1712 6.85607 10.0834 7.07377 10.0834 7.3335V11.0002C10.0834 11.2599 10.1712 11.4776 10.3469 11.6533C10.5226 11.829 10.7403 11.9168 11 11.9168ZM11 20.1668C9.73198 20.1668 8.54032 19.9262 7.42504 19.445C6.30976 18.9637 5.33962 18.3106 4.51462 17.4856C3.68962 16.6606 3.0365 15.6904 2.55525 14.5752C2.074 13.4599 1.83337 12.2682 1.83337 11.0002C1.83337 9.73211 2.074 8.54044 2.55525 7.42516C3.0365 6.30988 3.68962 5.33975 4.51462 4.51475C5.33962 3.68975 6.30976 3.03662 7.42504 2.55537C8.54032 2.07412 9.73198 1.8335 11 1.8335C12.2681 1.8335 13.4598 2.07412 14.575 2.55537C15.6903 3.03662 16.6605 3.68975 17.4855 4.51475C18.3105 5.33975 18.9636 6.30988 19.4448 7.42516C19.9261 8.54044 20.1667 9.73211 20.1667 11.0002C20.1667 12.2682 19.9261 13.4599 19.4448 14.5752C18.9636 15.6904 18.3105 16.6606 17.4855 17.4856C16.6605 18.3106 15.6903 18.9637 14.575 19.445C13.4598 19.9262 12.2681 20.1668 11 20.1668Z" fill="#FDD10E"/>
</svg>