<svg width="64" height="64" viewBox="0 0 64 64" fill="none" xmlns="http://www.w3.org/2000/svg">
<g id="icon">
<g id="Special">
<g id="Verifier_Portkey">
<path id="Rectangle" d="M64 32C64 14.3269 49.6731 0 32 0C14.3269 0 0 14.3269 0 32C0 49.6731 14.3269 64 32 64C49.6731 64 64 49.6731 64 32Z" fill="#B8E1FF"/>
<g id="Shape">
<path d="M30.5507 21.2167C25.9125 23.2513 22.9954 28.2274 24.6936 33.1724C25.7206 36.1629 27.79 38.2938 30.859 39.383C36.2256 41.2879 41.8278 37.0994 41.1995 31.655C40.9328 29.341 39.7576 27.5791 37.3711 26.85C35.5958 26.3076 33.8968 26.561 32.5105 27.851C31.3339 28.9446 30.8879 30.2917 31.3591 31.8573C31.6192 32.7182 32.2438 33.2539 33.0936 33.5096C33.8398 33.7333 34.417 33.4095 34.8615 32.7901C34.7719 32.6404 34.6933 32.4767 34.5844 32.3359C34.0042 31.5861 34.4747 30.4954 34.9764 30.0412C35.658 29.424 36.762 29.3677 37.4874 29.879C38.664 30.7066 39.199 32.9079 38.5595 34.289C37.4896 36.5993 34.7385 37.9441 32.2141 37.2898C28.2286 36.257 26.2637 32.3218 27.5499 28.5179C29.2593 23.4632 35.0045 21.2522 39.9006 23.6766C43.8587 25.6356 45.328 29.0565 45.1702 33.1287C44.9116 39.8335 38.1461 44.8074 31.3621 43.5144C24.7825 42.2608 19.8968 35.9606 20.2473 30.0027C20.3762 27.8029 20.8659 25.7431 21.9914 23.8529C24.9196 18.9375 29.4808 16.6243 35.186 16.2502C36.6879 16.1516 38.2024 16.2353 39.6332 16.2361C39.5546 16.2013 39.3753 16.1131 39.1886 16.0434C36.4027 15.0002 33.5234 14.6675 30.573 15.0884C28.7436 15.3136 27.055 15.8078 25.5198 16.5147C25.4916 16.5191 25.4583 16.5287 25.4175 16.5458C24.727 16.8399 24.6114 16.1642 24.3661 15.9597C24.1275 15.7611 24.1587 16.0079 24.1587 16.0079C24.3669 16.9985 23.8452 17.3979 23.7749 17.4468C23.3399 17.7157 22.9228 18.0062 22.5197 18.3114C22.5079 18.3166 22.499 18.3166 22.4864 18.3226C21.5343 18.7567 21.1386 18.0232 20.7007 17.8002C20.2376 17.5646 20.4125 17.9514 20.4125 17.9514C20.986 19.0909 20.491 20.066 20.3984 20.2305C19.9924 20.6684 19.6123 21.1285 19.2566 21.6064C19.2196 21.6301 19.1833 21.6523 19.141 21.6901C18.206 22.5355 17.4784 21.8665 16.9004 21.7405C16.2632 21.6027 16.6241 22.0198 16.6241 22.0198C17.8029 23.2268 17.4302 24.6783 17.4302 24.6783L17.4332 24.6798C15.9187 27.9525 15.3748 31.7402 16.0039 35.5427C18.0719 48.0416 33.4456 53.9446 43.5231 45.8929C46.7958 43.2781 49.066 38.2412 49.3054 34.0742C49.4758 31.1149 48.5607 28.429 46.8736 25.9972C43.2941 20.8373 36.1396 18.7649 30.5507 21.2167Z" fill="#0A4370"/>
</g>
</g>
</g>
</g>
</svg>
